<mxfile host="app.diagrams.net" modified="2022-02-14T10:10:34.063Z" agent="5.0 (Windows NT 10.0; Win64; x64) AppleWebKit/537.36 (KHTML, like Gecko) Chrome/97.0.4692.71 Safari/537.36" etag="ey-J7NZibNk9zmn54PvW" version="16.5.3" type="github" pages="5">
  <diagram id="KpkEGQ409U3p1T-nQ_Iy" name="时序图">
    <mxGraphModel dx="1204" dy="637" grid="1" gridSize="10" guides="1" tooltips="1" connect="1" arrows="1" fold="1" page="1" pageScale="1" pageWidth="827" pageHeight="1169" math="0" shadow="0">
      <root>
        <mxCell id="dMH_0dEpBMfl3PH4L_uG-0" />
        <mxCell id="dMH_0dEpBMfl3PH4L_uG-1" parent="dMH_0dEpBMfl3PH4L_uG-0" />
        <mxCell id="01sT2_j_ewfTkymeiKA3-0" value="&lt;span style=&quot;font-size: 11px ; background-color: rgb(255 , 255 , 255)&quot;&gt;零部件前端&lt;/span&gt;" style="shape=umlLifeline;perimeter=lifelinePerimeter;whiteSpace=wrap;html=1;container=1;collapsible=0;recursiveResize=0;outlineConnect=0;" parent="dMH_0dEpBMfl3PH4L_uG-1" vertex="1">
          <mxGeometry x="110" y="120" width="100" height="870" as="geometry" />
        </mxCell>
        <mxCell id="01sT2_j_ewfTkymeiKA3-10" value="" style="html=1;points=[];perimeter=orthogonalPerimeter;" parent="01sT2_j_ewfTkymeiKA3-0" vertex="1">
          <mxGeometry x="45" y="360" width="10" height="370" as="geometry" />
        </mxCell>
        <mxCell id="01sT2_j_ewfTkymeiKA3-2" value="零部件模块" style="shape=umlLifeline;perimeter=lifelinePerimeter;whiteSpace=wrap;html=1;container=1;collapsible=0;recursiveResize=0;outlineConnect=0;" parent="dMH_0dEpBMfl3PH4L_uG-1" vertex="1">
          <mxGeometry x="390" y="120" width="100" height="870" as="geometry" />
        </mxCell>
        <mxCell id="01sT2_j_ewfTkymeiKA3-3" value="1.1获取零件档案数据" style="edgeStyle=orthogonalEdgeStyle;html=1;align=left;spacingLeft=2;endArrow=block;rounded=0;entryX=1;entryY=0;endSize=6;targetPerimeterSpacing=-1;strokeColor=#1A1A1A;exitX=1;exitY=0.13;exitDx=0;exitDy=0;exitPerimeter=0;" parent="01sT2_j_ewfTkymeiKA3-2" edge="1">
          <mxGeometry relative="1" as="geometry">
            <mxPoint x="55" y="119.89999999999998" as="sourcePoint" />
            <Array as="points">
              <mxPoint x="90" y="120" />
              <mxPoint x="90" y="140" />
            </Array>
          </mxGeometry>
        </mxCell>
        <mxCell id="hbXLV57Qmul_VOZRptlu-0" value="" style="html=1;points=[];perimeter=orthogonalPerimeter;" parent="01sT2_j_ewfTkymeiKA3-2" vertex="1">
          <mxGeometry x="45" y="760" width="10" height="80" as="geometry" />
        </mxCell>
        <mxCell id="hbXLV57Qmul_VOZRptlu-3" value="" style="html=1;points=[];perimeter=orthogonalPerimeter;" parent="01sT2_j_ewfTkymeiKA3-2" vertex="1">
          <mxGeometry x="55" y="790" width="10" height="40" as="geometry" />
        </mxCell>
        <mxCell id="hbXLV57Qmul_VOZRptlu-4" value="4.关闭库存调整申请单()" style="edgeStyle=orthogonalEdgeStyle;html=1;align=left;spacingLeft=2;endArrow=block;rounded=0;entryX=1;entryY=0;startSize=14;endSize=8;exitX=1.023;exitY=0.129;exitDx=0;exitDy=0;exitPerimeter=0;" parent="01sT2_j_ewfTkymeiKA3-2" source="hbXLV57Qmul_VOZRptlu-0" target="hbXLV57Qmul_VOZRptlu-3" edge="1">
          <mxGeometry relative="1" as="geometry">
            <mxPoint x="60" y="770" as="sourcePoint" />
            <Array as="points">
              <mxPoint x="90" y="770" />
              <mxPoint x="90" y="790" />
            </Array>
          </mxGeometry>
        </mxCell>
        <mxCell id="01sT2_j_ewfTkymeiKA3-11" value="" style="html=1;points=[];perimeter=orthogonalPerimeter;" parent="dMH_0dEpBMfl3PH4L_uG-1" vertex="1">
          <mxGeometry x="435" y="480" width="10" height="350" as="geometry" />
        </mxCell>
        <mxCell id="01sT2_j_ewfTkymeiKA3-12" value="3.总部审批业务担当 审核库存调整申请单()" style="html=1;verticalAlign=bottom;endArrow=block;entryX=0;entryY=0;rounded=0;endSize=8;" parent="dMH_0dEpBMfl3PH4L_uG-1" target="01sT2_j_ewfTkymeiKA3-11" edge="1">
          <mxGeometry relative="1" as="geometry">
            <mxPoint x="160" y="480" as="sourcePoint" />
          </mxGeometry>
        </mxCell>
        <mxCell id="01sT2_j_ewfTkymeiKA3-13" value="" style="html=1;verticalAlign=bottom;endArrow=open;endSize=8;exitX=0;exitY=0.95;rounded=0;" parent="dMH_0dEpBMfl3PH4L_uG-1" target="01sT2_j_ewfTkymeiKA3-10" edge="1">
          <mxGeometry relative="1" as="geometry">
            <mxPoint x="164.32999999999993" y="832" as="targetPoint" />
            <mxPoint x="435" y="829.9999999999995" as="sourcePoint" />
          </mxGeometry>
        </mxCell>
        <mxCell id="01sT2_j_ewfTkymeiKA3-14" value="" style="html=1;points=[];perimeter=orthogonalPerimeter;fillColor=#FFFFFF;" parent="dMH_0dEpBMfl3PH4L_uG-1" vertex="1">
          <mxGeometry x="445" y="532" width="10" height="40" as="geometry" />
        </mxCell>
        <mxCell id="01sT2_j_ewfTkymeiKA3-15" value="3.1状态变更为全部通过()" style="edgeStyle=orthogonalEdgeStyle;html=1;align=left;spacingLeft=2;endArrow=block;rounded=0;entryX=1;entryY=0;exitX=1.022;exitY=0.128;exitDx=0;exitDy=0;exitPerimeter=0;" parent="dMH_0dEpBMfl3PH4L_uG-1" target="01sT2_j_ewfTkymeiKA3-14" edge="1">
          <mxGeometry relative="1" as="geometry">
            <mxPoint x="445.2199999999998" y="512.24" as="sourcePoint" />
            <Array as="points">
              <mxPoint x="480" y="512" />
              <mxPoint x="480" y="532" />
            </Array>
          </mxGeometry>
        </mxCell>
        <mxCell id="hysKCnYTG792oOM7qKN0-2" value="" style="html=1;points=[];perimeter=orthogonalPerimeter;fillColor=#FFFFFF;" parent="dMH_0dEpBMfl3PH4L_uG-1" vertex="1">
          <mxGeometry x="445" y="730" width="10" height="40" as="geometry" />
        </mxCell>
        <mxCell id="hysKCnYTG792oOM7qKN0-3" value="3.3更新为全部驳回()" style="edgeStyle=orthogonalEdgeStyle;html=1;align=left;spacingLeft=2;endArrow=block;rounded=0;entryX=1;entryY=0;exitX=1.022;exitY=0.128;exitDx=0;exitDy=0;exitPerimeter=0;" parent="dMH_0dEpBMfl3PH4L_uG-1" target="hysKCnYTG792oOM7qKN0-2" edge="1">
          <mxGeometry relative="1" as="geometry">
            <mxPoint x="445.2199999999998" y="710.24" as="sourcePoint" />
            <Array as="points">
              <mxPoint x="480" y="710" />
              <mxPoint x="480" y="730" />
            </Array>
          </mxGeometry>
        </mxCell>
        <mxCell id="hysKCnYTG792oOM7qKN0-7" value="Opt" style="shape=umlFrame;whiteSpace=wrap;html=1;width=30;height=20;" parent="dMH_0dEpBMfl3PH4L_uG-1" vertex="1">
          <mxGeometry x="270" y="500" width="420" height="290" as="geometry" />
        </mxCell>
        <mxCell id="hysKCnYTG792oOM7qKN0-8" value="" style="html=1;points=[];perimeter=orthogonalPerimeter;fillColor=#FFFFFF;" parent="dMH_0dEpBMfl3PH4L_uG-1" vertex="1">
          <mxGeometry x="445" y="609" width="10" height="40" as="geometry" />
        </mxCell>
        <mxCell id="hysKCnYTG792oOM7qKN0-9" value="3.2更新库存()" style="edgeStyle=orthogonalEdgeStyle;html=1;align=left;spacingLeft=2;endArrow=block;rounded=0;entryX=1;entryY=0;exitX=1.022;exitY=0.128;exitDx=0;exitDy=0;exitPerimeter=0;" parent="dMH_0dEpBMfl3PH4L_uG-1" target="hysKCnYTG792oOM7qKN0-8" edge="1">
          <mxGeometry relative="1" as="geometry">
            <mxPoint x="445.2199999999998" y="589.24" as="sourcePoint" />
            <Array as="points">
              <mxPoint x="480" y="589" />
              <mxPoint x="480" y="609" />
            </Array>
          </mxGeometry>
        </mxCell>
        <mxCell id="hysKCnYTG792oOM7qKN0-10" value="如果部分零件通过，则状态变更为部分通过" style="shape=note;whiteSpace=wrap;html=1;backgroundOutline=1;darkOpacity=0.05;size=4;fillColor=#f8cecc;strokeColor=#b85450;" parent="dMH_0dEpBMfl3PH4L_uG-1" vertex="1">
          <mxGeometry x="520" y="530" width="140" height="31" as="geometry" />
        </mxCell>
        <mxCell id="hysKCnYTG792oOM7qKN0-11" value="" style="endArrow=none;dashed=1;html=1;rounded=0;endSize=8;entryX=0;entryY=0.5;entryDx=0;entryDy=0;entryPerimeter=0;" parent="dMH_0dEpBMfl3PH4L_uG-1" target="hysKCnYTG792oOM7qKN0-10" edge="1">
          <mxGeometry width="50" height="50" relative="1" as="geometry">
            <mxPoint x="480" y="530" as="sourcePoint" />
            <mxPoint x="570" y="560" as="targetPoint" />
          </mxGeometry>
        </mxCell>
        <mxCell id="hysKCnYTG792oOM7qKN0-12" value="" style="line;strokeWidth=1;rotatable=0;dashed=1;labelPosition=right;align=left;verticalAlign=middle;spacingTop=0;spacingLeft=6;points=[];portConstraint=eastwest;" parent="dMH_0dEpBMfl3PH4L_uG-1" vertex="1">
          <mxGeometry x="270" y="650" width="420" height="10" as="geometry" />
        </mxCell>
        <mxCell id="hysKCnYTG792oOM7qKN0-13" value="仅更新通过的零件库存，未通过的零件回到店端编辑后可再次提交审核直到全部通过" style="shape=note;whiteSpace=wrap;html=1;backgroundOutline=1;darkOpacity=0.05;size=4;fillColor=#f8cecc;strokeColor=#b85450;" parent="dMH_0dEpBMfl3PH4L_uG-1" vertex="1">
          <mxGeometry x="520" y="610" width="160" height="40" as="geometry" />
        </mxCell>
        <mxCell id="hysKCnYTG792oOM7qKN0-14" value="" style="endArrow=none;dashed=1;html=1;rounded=0;endSize=8;entryX=0;entryY=0.5;entryDx=0;entryDy=0;entryPerimeter=0;" parent="dMH_0dEpBMfl3PH4L_uG-1" edge="1">
          <mxGeometry width="50" height="50" relative="1" as="geometry">
            <mxPoint x="480" y="610" as="sourcePoint" />
            <mxPoint x="520" y="625.5" as="targetPoint" />
          </mxGeometry>
        </mxCell>
        <mxCell id="hysKCnYTG792oOM7qKN0-15" value="【全部通过】 所有零件通过&lt;br&gt;【部分通过】 部分零件通过" style="text;html=1;align=center;verticalAlign=middle;resizable=0;points=[];autosize=1;strokeColor=none;fillColor=none;" parent="dMH_0dEpBMfl3PH4L_uG-1" vertex="1">
          <mxGeometry x="265" y="536" width="160" height="30" as="geometry" />
        </mxCell>
        <mxCell id="hysKCnYTG792oOM7qKN0-16" value="【全部驳回】所有零件驳回" style="text;html=1;align=center;verticalAlign=middle;resizable=0;points=[];autosize=1;strokeColor=none;fillColor=none;" parent="dMH_0dEpBMfl3PH4L_uG-1" vertex="1">
          <mxGeometry x="261" y="661" width="160" height="20" as="geometry" />
        </mxCell>
        <mxCell id="hysKCnYTG792oOM7qKN0-17" value="驳回到店端，编辑后可再次提交" style="shape=note;whiteSpace=wrap;html=1;backgroundOutline=1;darkOpacity=0.05;size=4;fillColor=#f8cecc;strokeColor=#b85450;" parent="dMH_0dEpBMfl3PH4L_uG-1" vertex="1">
          <mxGeometry x="520" y="740" width="170" height="20" as="geometry" />
        </mxCell>
        <mxCell id="hysKCnYTG792oOM7qKN0-18" value="" style="endArrow=none;dashed=1;html=1;rounded=0;endSize=8;entryX=0;entryY=0.5;entryDx=0;entryDy=0;entryPerimeter=0;" parent="dMH_0dEpBMfl3PH4L_uG-1" target="hysKCnYTG792oOM7qKN0-17" edge="1">
          <mxGeometry width="50" height="50" relative="1" as="geometry">
            <mxPoint x="480" y="730" as="sourcePoint" />
            <mxPoint x="520" y="745.5" as="targetPoint" />
          </mxGeometry>
        </mxCell>
        <mxCell id="B54YnUm7SQSFbyslBy3h-0" value="" style="html=1;points=[];perimeter=orthogonalPerimeter;" parent="dMH_0dEpBMfl3PH4L_uG-1" vertex="1">
          <mxGeometry x="155" y="210" width="10" height="80" as="geometry" />
        </mxCell>
        <mxCell id="B54YnUm7SQSFbyslBy3h-1" value="" style="html=1;points=[];perimeter=orthogonalPerimeter;" parent="dMH_0dEpBMfl3PH4L_uG-1" vertex="1">
          <mxGeometry x="435" y="210" width="10" height="80" as="geometry" />
        </mxCell>
        <mxCell id="B54YnUm7SQSFbyslBy3h-2" value="1.经销商零件担当、经理新建库存调整申请单()&amp;nbsp;" style="html=1;verticalAlign=bottom;endArrow=block;entryX=0;entryY=0;rounded=0;endSize=8;" parent="dMH_0dEpBMfl3PH4L_uG-1" target="B54YnUm7SQSFbyslBy3h-1" edge="1">
          <mxGeometry relative="1" as="geometry">
            <mxPoint x="160" y="210" as="sourcePoint" />
          </mxGeometry>
        </mxCell>
        <mxCell id="B54YnUm7SQSFbyslBy3h-3" value="" style="html=1;verticalAlign=bottom;endArrow=open;endSize=8;exitX=0;exitY=0.95;rounded=0;entryX=0.933;entryY=0.955;entryDx=0;entryDy=0;entryPerimeter=0;" parent="dMH_0dEpBMfl3PH4L_uG-1" source="B54YnUm7SQSFbyslBy3h-1" target="B54YnUm7SQSFbyslBy3h-0" edge="1">
          <mxGeometry relative="1" as="geometry">
            <mxPoint x="160" y="286" as="targetPoint" />
          </mxGeometry>
        </mxCell>
        <mxCell id="B54YnUm7SQSFbyslBy3h-4" value="" style="html=1;points=[];perimeter=orthogonalPerimeter;fillColor=#FFFFFF;" parent="dMH_0dEpBMfl3PH4L_uG-1" vertex="1">
          <mxGeometry x="445" y="240" width="10" height="40" as="geometry" />
        </mxCell>
        <mxCell id="B54YnUm7SQSFbyslBy3h-5" value="1.1保存库存调整申请单为待提交()" style="edgeStyle=orthogonalEdgeStyle;html=1;align=left;spacingLeft=2;endArrow=block;rounded=0;entryX=1;entryY=0;exitX=1.022;exitY=0.128;exitDx=0;exitDy=0;exitPerimeter=0;" parent="dMH_0dEpBMfl3PH4L_uG-1" target="B54YnUm7SQSFbyslBy3h-4" edge="1">
          <mxGeometry relative="1" as="geometry">
            <mxPoint x="445.2199999999998" y="220.24" as="sourcePoint" />
            <Array as="points">
              <mxPoint x="480" y="220" />
              <mxPoint x="480" y="240" />
            </Array>
          </mxGeometry>
        </mxCell>
        <mxCell id="B54YnUm7SQSFbyslBy3h-6" value="" style="html=1;points=[];perimeter=orthogonalPerimeter;" parent="dMH_0dEpBMfl3PH4L_uG-1" vertex="1">
          <mxGeometry x="155" y="340" width="10" height="80" as="geometry" />
        </mxCell>
        <mxCell id="B54YnUm7SQSFbyslBy3h-7" value="" style="html=1;points=[];perimeter=orthogonalPerimeter;" parent="dMH_0dEpBMfl3PH4L_uG-1" vertex="1">
          <mxGeometry x="435" y="340" width="10" height="80" as="geometry" />
        </mxCell>
        <mxCell id="B54YnUm7SQSFbyslBy3h-8" value="2.经销商零件担当、经理提交库存调整申请单()&amp;nbsp;" style="html=1;verticalAlign=bottom;endArrow=block;entryX=0;entryY=0;rounded=0;endSize=8;" parent="dMH_0dEpBMfl3PH4L_uG-1" target="B54YnUm7SQSFbyslBy3h-7" edge="1">
          <mxGeometry relative="1" as="geometry">
            <mxPoint x="160" y="340" as="sourcePoint" />
          </mxGeometry>
        </mxCell>
        <mxCell id="B54YnUm7SQSFbyslBy3h-9" value="" style="html=1;verticalAlign=bottom;endArrow=open;endSize=8;exitX=0;exitY=0.95;rounded=0;entryX=0.933;entryY=0.955;entryDx=0;entryDy=0;entryPerimeter=0;" parent="dMH_0dEpBMfl3PH4L_uG-1" source="B54YnUm7SQSFbyslBy3h-7" target="B54YnUm7SQSFbyslBy3h-6" edge="1">
          <mxGeometry relative="1" as="geometry">
            <mxPoint x="160" y="416" as="targetPoint" />
          </mxGeometry>
        </mxCell>
        <mxCell id="B54YnUm7SQSFbyslBy3h-10" value="" style="html=1;points=[];perimeter=orthogonalPerimeter;fillColor=#FFFFFF;" parent="dMH_0dEpBMfl3PH4L_uG-1" vertex="1">
          <mxGeometry x="445" y="370" width="10" height="40" as="geometry" />
        </mxCell>
        <mxCell id="B54YnUm7SQSFbyslBy3h-11" value="2.1提交库存调整申请单为待审核()" style="edgeStyle=orthogonalEdgeStyle;html=1;align=left;spacingLeft=2;endArrow=block;rounded=0;entryX=1;entryY=0;exitX=1.022;exitY=0.128;exitDx=0;exitDy=0;exitPerimeter=0;" parent="dMH_0dEpBMfl3PH4L_uG-1" target="B54YnUm7SQSFbyslBy3h-10" edge="1">
          <mxGeometry relative="1" as="geometry">
            <mxPoint x="445.2199999999998" y="350.24" as="sourcePoint" />
            <Array as="points">
              <mxPoint x="480" y="350" />
              <mxPoint x="480" y="370" />
            </Array>
          </mxGeometry>
        </mxCell>
        <mxCell id="hbXLV57Qmul_VOZRptlu-5" value="&lt;span style=&quot;background-color: rgb(248 , 206 , 204)&quot;&gt;&lt;span style=&quot;font-size: 11px ; text-align: left&quot;&gt;未提交的废单、全部驳回、全部通过的申请单&lt;/span&gt;&lt;br style=&quot;font-size: 11px ; text-align: left&quot;&gt;&lt;span style=&quot;font-size: 11px ; text-align: left&quot;&gt;超过30天的申请单状态更新为已关闭&lt;/span&gt;&lt;/span&gt;" style="shape=note;size=4;whiteSpace=wrap;html=1;fillColor=#f8cecc;strokeColor=#b85450;" parent="dMH_0dEpBMfl3PH4L_uG-1" vertex="1">
          <mxGeometry x="480" y="980" width="250" height="30" as="geometry" />
        </mxCell>
        <mxCell id="hbXLV57Qmul_VOZRptlu-6" value="" style="endArrow=none;dashed=1;html=1;rounded=0;endSize=8;entryX=0.196;entryY=-0.151;entryDx=0;entryDy=0;entryPerimeter=0;" parent="dMH_0dEpBMfl3PH4L_uG-1" target="hbXLV57Qmul_VOZRptlu-5" edge="1">
          <mxGeometry width="50" height="50" relative="1" as="geometry">
            <mxPoint x="480" y="910" as="sourcePoint" />
            <mxPoint x="520" y="930" as="targetPoint" />
          </mxGeometry>
        </mxCell>
        <mxCell id="3NVWOy3F8VKgmfq68ax4-1" value="库存调整单-时序" style="shape=umlFrame;whiteSpace=wrap;html=1;fillColor=#FFFFFF;width=90;height=20;" parent="dMH_0dEpBMfl3PH4L_uG-1" vertex="1">
          <mxGeometry x="100" y="90" width="630" height="760" as="geometry" />
        </mxCell>
        <mxCell id="3NVWOy3F8VKgmfq68ax4-2" value="Loop:每日一次" style="shape=umlFrame;whiteSpace=wrap;html=1;fillColor=#FFFFFF;width=100;height=20;" parent="dMH_0dEpBMfl3PH4L_uG-1" vertex="1">
          <mxGeometry x="336" y="870" width="294" height="100" as="geometry" />
        </mxCell>
      </root>
    </mxGraphModel>
  </diagram>
  <diagram id="1weqx7i3Zt6CdPhyrl3k" name="审核-行为图">
    <mxGraphModel dx="1505" dy="796" grid="1" gridSize="10" guides="1" tooltips="1" connect="1" arrows="1" fold="1" page="1" pageScale="1" pageWidth="827" pageHeight="1169" math="0" shadow="0">
      <root>
        <mxCell id="PVDpojOrxvgwT7yR8eio-0" />
        <mxCell id="PVDpojOrxvgwT7yR8eio-1" parent="PVDpojOrxvgwT7yR8eio-0" />
        <mxCell id="wpYmfyQto9yeINCN27tz-4" value="零部件前端" style="shape=umlLifeline;perimeter=lifelinePerimeter;whiteSpace=wrap;html=1;container=1;collapsible=0;recursiveResize=0;outlineConnect=0;labelBackgroundColor=#FFFFFF;strokeColor=default;fillColor=default;" parent="PVDpojOrxvgwT7yR8eio-1" vertex="1">
          <mxGeometry x="40" y="120" width="100" height="1460" as="geometry" />
        </mxCell>
        <mxCell id="jKjF-aAcpFzyUoy3z2Qd-0" value="" style="html=1;points=[];perimeter=orthogonalPerimeter;fillColor=#FFFFFF;" parent="wpYmfyQto9yeINCN27tz-4" vertex="1">
          <mxGeometry x="45" y="63" width="10" height="380" as="geometry" />
        </mxCell>
        <mxCell id="wpYmfyQto9yeINCN27tz-5" value="应用层-零部件聚合服务" style="shape=umlLifeline;perimeter=lifelinePerimeter;whiteSpace=wrap;html=1;container=1;collapsible=0;recursiveResize=0;outlineConnect=0;labelBackgroundColor=#FFFFFF;strokeColor=default;fillColor=default;" parent="PVDpojOrxvgwT7yR8eio-1" vertex="1">
          <mxGeometry x="413.5" y="120" width="100" height="1460" as="geometry" />
        </mxCell>
        <mxCell id="jKjF-aAcpFzyUoy3z2Qd-2" value="" style="html=1;points=[];perimeter=orthogonalPerimeter;fillColor=#FFFFFF;" parent="wpYmfyQto9yeINCN27tz-5" vertex="1">
          <mxGeometry x="45" y="213" width="10" height="190" as="geometry" />
        </mxCell>
        <mxCell id="APzES4uNsAzaqkppAaz5-0" value="1.2调用库存聚合，&lt;br&gt;全部通过库存调整申请单()" style="html=1;verticalAlign=bottom;endArrow=block;rounded=0;" parent="wpYmfyQto9yeINCN27tz-5" edge="1">
          <mxGeometry width="80" relative="1" as="geometry">
            <mxPoint x="-133.57142857142844" y="213" as="sourcePoint" />
            <mxPoint x="45" y="213" as="targetPoint" />
          </mxGeometry>
        </mxCell>
        <mxCell id="wpYmfyQto9yeINCN27tz-6" value="领域层-库存管理原子服务" style="shape=umlLifeline;perimeter=lifelinePerimeter;whiteSpace=wrap;html=1;container=1;collapsible=0;recursiveResize=0;outlineConnect=0;labelBackgroundColor=#FFFFFF;strokeColor=default;fillColor=default;" parent="PVDpojOrxvgwT7yR8eio-1" vertex="1">
          <mxGeometry x="600" y="120" width="100" height="1460" as="geometry" />
        </mxCell>
        <mxCell id="S7TvruMrhGSUDgaMsNXn-3" value="" style="html=1;points=[];perimeter=orthogonalPerimeter;fillColor=#FFFFFF;" vertex="1" parent="wpYmfyQto9yeINCN27tz-6">
          <mxGeometry x="44" y="243" width="10" height="137" as="geometry" />
        </mxCell>
        <mxCell id="S7TvruMrhGSUDgaMsNXn-6" value="" style="html=1;points=[];perimeter=orthogonalPerimeter;fillColor=#FFFFFF;" vertex="1" parent="wpYmfyQto9yeINCN27tz-6">
          <mxGeometry x="54" y="273" width="10" height="40" as="geometry" />
        </mxCell>
        <mxCell id="S7TvruMrhGSUDgaMsNXn-7" value="1.2.1.1库存调整单.全部通过" style="edgeStyle=orthogonalEdgeStyle;html=1;align=left;spacingLeft=2;endArrow=block;rounded=0;entryX=1;entryY=0;endSize=6;exitX=0.984;exitY=0.121;exitDx=0;exitDy=0;exitPerimeter=0;" edge="1" target="S7TvruMrhGSUDgaMsNXn-6" parent="wpYmfyQto9yeINCN27tz-6" source="S7TvruMrhGSUDgaMsNXn-3">
          <mxGeometry relative="1" as="geometry">
            <mxPoint x="59" y="253" as="sourcePoint" />
            <Array as="points">
              <mxPoint x="89" y="253" />
              <mxPoint x="89" y="273" />
            </Array>
          </mxGeometry>
        </mxCell>
        <mxCell id="wpYmfyQto9yeINCN27tz-7" value="接口-BFF服务" style="shape=umlLifeline;perimeter=lifelinePerimeter;whiteSpace=wrap;html=1;container=1;collapsible=0;recursiveResize=0;outlineConnect=0;labelBackgroundColor=#FFFFFF;strokeColor=default;fillColor=default;" parent="PVDpojOrxvgwT7yR8eio-1" vertex="1">
          <mxGeometry x="230" y="120" width="100" height="1460" as="geometry" />
        </mxCell>
        <mxCell id="jKjF-aAcpFzyUoy3z2Qd-1" value="" style="html=1;points=[];perimeter=orthogonalPerimeter;fillColor=#FFFFFF;" parent="wpYmfyQto9yeINCN27tz-7" vertex="1">
          <mxGeometry x="45" y="83" width="10" height="340" as="geometry" />
        </mxCell>
        <mxCell id="S7TvruMrhGSUDgaMsNXn-0" value="" style="html=1;points=[];perimeter=orthogonalPerimeter;fillColor=#FFFFFF;" vertex="1" parent="wpYmfyQto9yeINCN27tz-7">
          <mxGeometry x="55" y="133" width="10" height="40" as="geometry" />
        </mxCell>
        <mxCell id="S7TvruMrhGSUDgaMsNXn-1" value="1.1参数合规性校验()" style="edgeStyle=orthogonalEdgeStyle;html=1;align=left;spacingLeft=2;endArrow=block;rounded=0;entryX=1;entryY=0;endSize=6;exitX=1.008;exitY=0.048;exitDx=0;exitDy=0;exitPerimeter=0;" edge="1" target="S7TvruMrhGSUDgaMsNXn-0" parent="wpYmfyQto9yeINCN27tz-7" source="jKjF-aAcpFzyUoy3z2Qd-1">
          <mxGeometry relative="1" as="geometry">
            <mxPoint x="60" y="113" as="sourcePoint" />
            <Array as="points">
              <mxPoint x="90" y="113" />
              <mxPoint x="90" y="133" />
            </Array>
          </mxGeometry>
        </mxCell>
        <mxCell id="jKjF-aAcpFzyUoy3z2Qd-3" value="1.申请单全部通过()" style="html=1;verticalAlign=bottom;endArrow=block;rounded=0;" parent="PVDpojOrxvgwT7yR8eio-1" edge="1">
          <mxGeometry width="80" relative="1" as="geometry">
            <mxPoint x="95" y="203" as="sourcePoint" />
            <mxPoint x="279.5" y="203" as="targetPoint" />
          </mxGeometry>
        </mxCell>
        <mxCell id="4KbSvLwllQu7x9LMoli2-1" value="" style="html=1;verticalAlign=bottom;endArrow=open;dashed=1;endSize=8;rounded=0;entryX=0.997;entryY=0.939;entryDx=0;entryDy=0;entryPerimeter=0;" parent="PVDpojOrxvgwT7yR8eio-1" edge="1">
          <mxGeometry relative="1" as="geometry">
            <mxPoint x="279.5" y="542.8199999999999" as="sourcePoint" />
            <mxPoint x="94.97000000000025" y="542.8199999999999" as="targetPoint" />
          </mxGeometry>
        </mxCell>
        <mxCell id="BvePdDAGFryPoxgPQDOB-0" value="Opt" style="shape=umlFrame;whiteSpace=wrap;html=1;width=40;height=20;" parent="PVDpojOrxvgwT7yR8eio-1" vertex="1">
          <mxGeometry x="10" y="170" width="890" height="1410" as="geometry" />
        </mxCell>
        <mxCell id="S7TvruMrhGSUDgaMsNXn-4" value="1.2.1更新库存调整申请单" style="html=1;verticalAlign=bottom;endArrow=block;entryX=0;entryY=0;rounded=0;endSize=6;" edge="1" target="S7TvruMrhGSUDgaMsNXn-3" parent="PVDpojOrxvgwT7yR8eio-1">
          <mxGeometry relative="1" as="geometry">
            <mxPoint x="469" y="363" as="sourcePoint" />
          </mxGeometry>
        </mxCell>
        <mxCell id="S7TvruMrhGSUDgaMsNXn-5" value="" style="html=1;verticalAlign=bottom;endArrow=open;dashed=1;endSize=8;exitX=0;exitY=0.95;rounded=0;" edge="1" parent="PVDpojOrxvgwT7yR8eio-1">
          <mxGeometry relative="1" as="geometry">
            <mxPoint x="469" y="500" as="targetPoint" />
            <mxPoint x="644" y="500" as="sourcePoint" />
          </mxGeometry>
        </mxCell>
        <mxCell id="rbU0Slw8I5bNIlCiZn7C-0" value="事件总线MQ" style="shape=umlLifeline;perimeter=lifelinePerimeter;whiteSpace=wrap;html=1;container=1;collapsible=0;recursiveResize=0;outlineConnect=0;fillColor=#FFFFFF;" vertex="1" parent="PVDpojOrxvgwT7yR8eio-1">
          <mxGeometry x="760" y="120" width="100" height="1460" as="geometry" />
        </mxCell>
        <mxCell id="rbU0Slw8I5bNIlCiZn7C-1" value="" style="html=1;points=[];perimeter=orthogonalPerimeter;fillColor=#FFFFFF;" vertex="1" parent="rbU0Slw8I5bNIlCiZn7C-0">
          <mxGeometry x="44" y="357" width="10" height="29" as="geometry" />
        </mxCell>
        <mxCell id="rbU0Slw8I5bNIlCiZn7C-2" value="1.2.1.2事件通知：&lt;br&gt;库存调整申请单.全部通过" style="html=1;verticalAlign=bottom;endArrow=open;entryX=0;entryY=0;rounded=0;endSize=6;endFill=0;exitX=1.031;exitY=0.88;exitDx=0;exitDy=0;exitPerimeter=0;" edge="1" target="rbU0Slw8I5bNIlCiZn7C-1" parent="PVDpojOrxvgwT7yR8eio-1">
          <mxGeometry relative="1" as="geometry">
            <mxPoint x="654.31" y="476.55999999999995" as="sourcePoint" />
          </mxGeometry>
        </mxCell>
        <mxCell id="4KbSvLwllQu7x9LMoli2-0" value="" style="html=1;verticalAlign=bottom;endArrow=open;dashed=1;endSize=8;rounded=0;exitX=0.042;exitY=1.008;exitDx=0;exitDy=0;exitPerimeter=0;" parent="PVDpojOrxvgwT7yR8eio-1" edge="1">
          <mxGeometry relative="1" as="geometry">
            <mxPoint x="458.9199999999996" y="523.52" as="sourcePoint" />
            <mxPoint x="285" y="523.52" as="targetPoint" />
          </mxGeometry>
        </mxCell>
        <mxCell id="rbU0Slw8I5bNIlCiZn7C-15" value="" style="html=1;points=[];perimeter=orthogonalPerimeter;fillColor=#FFFFFF;" vertex="1" parent="PVDpojOrxvgwT7yR8eio-1">
          <mxGeometry x="85" y="714" width="10" height="380" as="geometry" />
        </mxCell>
        <mxCell id="rbU0Slw8I5bNIlCiZn7C-16" value="" style="html=1;points=[];perimeter=orthogonalPerimeter;fillColor=#FFFFFF;" vertex="1" parent="PVDpojOrxvgwT7yR8eio-1">
          <mxGeometry x="458.5" y="864" width="10" height="190" as="geometry" />
        </mxCell>
        <mxCell id="rbU0Slw8I5bNIlCiZn7C-17" value="1.2调用库存聚合，&lt;br&gt;部分通过库存调整申请单()" style="html=1;verticalAlign=bottom;endArrow=block;rounded=0;" edge="1" parent="PVDpojOrxvgwT7yR8eio-1">
          <mxGeometry width="80" relative="1" as="geometry">
            <mxPoint x="279.92857142857156" y="864" as="sourcePoint" />
            <mxPoint x="458.5" y="864" as="targetPoint" />
          </mxGeometry>
        </mxCell>
        <mxCell id="rbU0Slw8I5bNIlCiZn7C-18" value="" style="html=1;points=[];perimeter=orthogonalPerimeter;fillColor=#FFFFFF;" vertex="1" parent="PVDpojOrxvgwT7yR8eio-1">
          <mxGeometry x="458.5" y="1074" width="10" height="137" as="geometry" />
        </mxCell>
        <mxCell id="rbU0Slw8I5bNIlCiZn7C-19" value="" style="html=1;points=[];perimeter=orthogonalPerimeter;fillColor=#FFFFFF;" vertex="1" parent="PVDpojOrxvgwT7yR8eio-1">
          <mxGeometry x="644" y="894" width="10" height="137" as="geometry" />
        </mxCell>
        <mxCell id="rbU0Slw8I5bNIlCiZn7C-20" value="" style="html=1;points=[];perimeter=orthogonalPerimeter;fillColor=#FFFFFF;" vertex="1" parent="PVDpojOrxvgwT7yR8eio-1">
          <mxGeometry x="654" y="924" width="10" height="40" as="geometry" />
        </mxCell>
        <mxCell id="rbU0Slw8I5bNIlCiZn7C-21" value="1.2.1.1库存调整单.部分通过" style="edgeStyle=orthogonalEdgeStyle;html=1;align=left;spacingLeft=2;endArrow=block;rounded=0;entryX=1;entryY=0;endSize=6;exitX=0.984;exitY=0.121;exitDx=0;exitDy=0;exitPerimeter=0;" edge="1" parent="PVDpojOrxvgwT7yR8eio-1" source="rbU0Slw8I5bNIlCiZn7C-19" target="rbU0Slw8I5bNIlCiZn7C-20">
          <mxGeometry relative="1" as="geometry">
            <mxPoint x="59" y="784" as="sourcePoint" />
            <Array as="points">
              <mxPoint x="689" y="904" />
              <mxPoint x="689" y="924" />
            </Array>
          </mxGeometry>
        </mxCell>
        <mxCell id="rbU0Slw8I5bNIlCiZn7C-22" value="" style="html=1;points=[];perimeter=orthogonalPerimeter;fillColor=#FFFFFF;" vertex="1" parent="PVDpojOrxvgwT7yR8eio-1">
          <mxGeometry x="645" y="1121" width="10" height="80" as="geometry" />
        </mxCell>
        <mxCell id="rbU0Slw8I5bNIlCiZn7C-23" value="" style="html=1;points=[];perimeter=orthogonalPerimeter;fillColor=#FFFFFF;" vertex="1" parent="PVDpojOrxvgwT7yR8eio-1">
          <mxGeometry x="655" y="1151" width="10" height="40" as="geometry" />
        </mxCell>
        <mxCell id="rbU0Slw8I5bNIlCiZn7C-24" value="1.2.3.1更新零件档案.库存数()&lt;br&gt;持久化" style="edgeStyle=orthogonalEdgeStyle;html=1;align=left;spacingLeft=2;endArrow=block;rounded=0;entryX=1;entryY=0;endSize=6;exitX=1.014;exitY=0.126;exitDx=0;exitDy=0;exitPerimeter=0;" edge="1" parent="PVDpojOrxvgwT7yR8eio-1" source="rbU0Slw8I5bNIlCiZn7C-22" target="rbU0Slw8I5bNIlCiZn7C-23">
          <mxGeometry relative="1" as="geometry">
            <mxPoint x="60" y="1011" as="sourcePoint" />
            <Array as="points">
              <mxPoint x="690" y="1131" />
              <mxPoint x="690" y="1151" />
            </Array>
          </mxGeometry>
        </mxCell>
        <mxCell id="rbU0Slw8I5bNIlCiZn7C-25" value="" style="html=1;points=[];perimeter=orthogonalPerimeter;fillColor=#FFFFFF;" vertex="1" parent="PVDpojOrxvgwT7yR8eio-1">
          <mxGeometry x="275" y="734" width="10" height="340" as="geometry" />
        </mxCell>
        <mxCell id="rbU0Slw8I5bNIlCiZn7C-26" value="" style="html=1;points=[];perimeter=orthogonalPerimeter;fillColor=#FFFFFF;" vertex="1" parent="PVDpojOrxvgwT7yR8eio-1">
          <mxGeometry x="285" y="784" width="10" height="40" as="geometry" />
        </mxCell>
        <mxCell id="rbU0Slw8I5bNIlCiZn7C-27" value="1.1参数合规性校验()" style="edgeStyle=orthogonalEdgeStyle;html=1;align=left;spacingLeft=2;endArrow=block;rounded=0;entryX=1;entryY=0;endSize=6;exitX=1.008;exitY=0.048;exitDx=0;exitDy=0;exitPerimeter=0;" edge="1" parent="PVDpojOrxvgwT7yR8eio-1" source="rbU0Slw8I5bNIlCiZn7C-25" target="rbU0Slw8I5bNIlCiZn7C-26">
          <mxGeometry relative="1" as="geometry">
            <mxPoint x="60" y="644" as="sourcePoint" />
            <Array as="points">
              <mxPoint x="320" y="764" />
              <mxPoint x="320" y="784" />
            </Array>
          </mxGeometry>
        </mxCell>
        <mxCell id="rbU0Slw8I5bNIlCiZn7C-28" value="1.申请单部分通过()" style="html=1;verticalAlign=bottom;endArrow=block;rounded=0;" edge="1" parent="PVDpojOrxvgwT7yR8eio-1">
          <mxGeometry width="80" relative="1" as="geometry">
            <mxPoint x="95" y="734" as="sourcePoint" />
            <mxPoint x="279.5" y="734" as="targetPoint" />
          </mxGeometry>
        </mxCell>
        <mxCell id="rbU0Slw8I5bNIlCiZn7C-29" value="" style="html=1;verticalAlign=bottom;endArrow=open;dashed=1;endSize=8;rounded=0;entryX=0.997;entryY=0.939;entryDx=0;entryDy=0;entryPerimeter=0;" edge="1" parent="PVDpojOrxvgwT7yR8eio-1">
          <mxGeometry relative="1" as="geometry">
            <mxPoint x="279.5" y="1073.82" as="sourcePoint" />
            <mxPoint x="94.97000000000025" y="1073.82" as="targetPoint" />
          </mxGeometry>
        </mxCell>
        <mxCell id="rbU0Slw8I5bNIlCiZn7C-30" value="1.2.1更新库存调整申请单" style="html=1;verticalAlign=bottom;endArrow=block;entryX=0;entryY=0;rounded=0;endSize=6;" edge="1" parent="PVDpojOrxvgwT7yR8eio-1" target="rbU0Slw8I5bNIlCiZn7C-19">
          <mxGeometry relative="1" as="geometry">
            <mxPoint x="469" y="894" as="sourcePoint" />
          </mxGeometry>
        </mxCell>
        <mxCell id="rbU0Slw8I5bNIlCiZn7C-31" value="" style="html=1;verticalAlign=bottom;endArrow=open;dashed=1;endSize=8;exitX=0;exitY=0.95;rounded=0;" edge="1" parent="PVDpojOrxvgwT7yR8eio-1">
          <mxGeometry relative="1" as="geometry">
            <mxPoint x="469" y="1031" as="targetPoint" />
            <mxPoint x="644" y="1031" as="sourcePoint" />
          </mxGeometry>
        </mxCell>
        <mxCell id="rbU0Slw8I5bNIlCiZn7C-32" value="" style="html=1;points=[];perimeter=orthogonalPerimeter;fillColor=#FFFFFF;" vertex="1" parent="PVDpojOrxvgwT7yR8eio-1">
          <mxGeometry x="804" y="1008" width="10" height="29" as="geometry" />
        </mxCell>
        <mxCell id="rbU0Slw8I5bNIlCiZn7C-33" value="1.2.1.2事件通知：&lt;br&gt;库存调整申请单.部分通过" style="html=1;verticalAlign=bottom;endArrow=open;entryX=0;entryY=0;rounded=0;endSize=6;endFill=0;exitX=1.031;exitY=0.88;exitDx=0;exitDy=0;exitPerimeter=0;" edge="1" parent="PVDpojOrxvgwT7yR8eio-1" target="rbU0Slw8I5bNIlCiZn7C-32">
          <mxGeometry relative="1" as="geometry">
            <mxPoint x="654.3099999999995" y="1007.56" as="sourcePoint" />
          </mxGeometry>
        </mxCell>
        <mxCell id="rbU0Slw8I5bNIlCiZn7C-34" value="" style="html=1;verticalAlign=bottom;endArrow=open;dashed=1;endSize=8;rounded=0;exitX=0.042;exitY=1.008;exitDx=0;exitDy=0;exitPerimeter=0;" edge="1" parent="PVDpojOrxvgwT7yR8eio-1">
          <mxGeometry relative="1" as="geometry">
            <mxPoint x="458.9199999999996" y="1054.52" as="sourcePoint" />
            <mxPoint x="285" y="1054.52" as="targetPoint" />
          </mxGeometry>
        </mxCell>
        <mxCell id="rbU0Slw8I5bNIlCiZn7C-35" value="" style="html=1;points=[];perimeter=orthogonalPerimeter;fillColor=#FFFFFF;" vertex="1" parent="PVDpojOrxvgwT7yR8eio-1">
          <mxGeometry x="804" y="1075" width="10" height="29" as="geometry" />
        </mxCell>
        <mxCell id="rbU0Slw8I5bNIlCiZn7C-36" value="1.2.2事件通知：库存调整申请单.部分通过" style="html=1;verticalAlign=bottom;endArrow=open;rounded=0;endSize=6;endFill=0;" edge="1" parent="PVDpojOrxvgwT7yR8eio-1">
          <mxGeometry relative="1" as="geometry">
            <mxPoint x="809.5" y="1075" as="sourcePoint" />
            <mxPoint x="469" y="1075" as="targetPoint" />
          </mxGeometry>
        </mxCell>
        <mxCell id="rbU0Slw8I5bNIlCiZn7C-37" value="1.2.3更新零件档案" style="html=1;verticalAlign=bottom;endArrow=block;entryX=0;entryY=0;rounded=0;endSize=6;" edge="1" parent="PVDpojOrxvgwT7yR8eio-1" target="rbU0Slw8I5bNIlCiZn7C-22">
          <mxGeometry relative="1" as="geometry">
            <mxPoint x="470" y="1121" as="sourcePoint" />
          </mxGeometry>
        </mxCell>
        <mxCell id="rbU0Slw8I5bNIlCiZn7C-38" value="" style="html=1;verticalAlign=bottom;endArrow=open;dashed=1;endSize=8;exitX=0;exitY=0.95;rounded=0;" edge="1" parent="PVDpojOrxvgwT7yR8eio-1">
          <mxGeometry relative="1" as="geometry">
            <mxPoint x="468.5" y="1201" as="targetPoint" />
            <mxPoint x="645" y="1201" as="sourcePoint" />
          </mxGeometry>
        </mxCell>
        <mxCell id="rbU0Slw8I5bNIlCiZn7C-39" value="" style="html=1;points=[];perimeter=orthogonalPerimeter;fillColor=#FFFFFF;" vertex="1" parent="PVDpojOrxvgwT7yR8eio-1">
          <mxGeometry x="458.5" y="547" width="10" height="137" as="geometry" />
        </mxCell>
        <mxCell id="rbU0Slw8I5bNIlCiZn7C-40" value="" style="html=1;points=[];perimeter=orthogonalPerimeter;fillColor=#FFFFFF;" vertex="1" parent="PVDpojOrxvgwT7yR8eio-1">
          <mxGeometry x="645" y="594" width="10" height="80" as="geometry" />
        </mxCell>
        <mxCell id="rbU0Slw8I5bNIlCiZn7C-41" value="" style="html=1;points=[];perimeter=orthogonalPerimeter;fillColor=#FFFFFF;" vertex="1" parent="PVDpojOrxvgwT7yR8eio-1">
          <mxGeometry x="655" y="624" width="10" height="40" as="geometry" />
        </mxCell>
        <mxCell id="rbU0Slw8I5bNIlCiZn7C-42" value="1.2.3.1更新零件档案.库存数()&lt;br&gt;持久化" style="edgeStyle=orthogonalEdgeStyle;html=1;align=left;spacingLeft=2;endArrow=block;rounded=0;entryX=1;entryY=0;endSize=6;exitX=1.014;exitY=0.126;exitDx=0;exitDy=0;exitPerimeter=0;" edge="1" parent="PVDpojOrxvgwT7yR8eio-1" source="rbU0Slw8I5bNIlCiZn7C-40" target="rbU0Slw8I5bNIlCiZn7C-41">
          <mxGeometry relative="1" as="geometry">
            <mxPoint x="60" y="484" as="sourcePoint" />
            <Array as="points">
              <mxPoint x="690" y="604" />
              <mxPoint x="690" y="624" />
            </Array>
          </mxGeometry>
        </mxCell>
        <mxCell id="rbU0Slw8I5bNIlCiZn7C-43" value="" style="html=1;points=[];perimeter=orthogonalPerimeter;fillColor=#FFFFFF;" vertex="1" parent="PVDpojOrxvgwT7yR8eio-1">
          <mxGeometry x="804" y="548" width="10" height="29" as="geometry" />
        </mxCell>
        <mxCell id="rbU0Slw8I5bNIlCiZn7C-44" value="1.2.2事件通知：库存调整申请单.全部通过" style="html=1;verticalAlign=bottom;endArrow=open;rounded=0;endSize=6;endFill=0;" edge="1" parent="PVDpojOrxvgwT7yR8eio-1">
          <mxGeometry relative="1" as="geometry">
            <mxPoint x="809.5" y="548" as="sourcePoint" />
            <mxPoint x="469" y="548" as="targetPoint" />
          </mxGeometry>
        </mxCell>
        <mxCell id="rbU0Slw8I5bNIlCiZn7C-45" value="1.2.3更新零件档案" style="html=1;verticalAlign=bottom;endArrow=block;entryX=0;entryY=0;rounded=0;endSize=6;" edge="1" parent="PVDpojOrxvgwT7yR8eio-1" target="rbU0Slw8I5bNIlCiZn7C-40">
          <mxGeometry relative="1" as="geometry">
            <mxPoint x="470" y="594" as="sourcePoint" />
          </mxGeometry>
        </mxCell>
        <mxCell id="rbU0Slw8I5bNIlCiZn7C-46" value="" style="html=1;verticalAlign=bottom;endArrow=open;dashed=1;endSize=8;exitX=0;exitY=0.95;rounded=0;" edge="1" parent="PVDpojOrxvgwT7yR8eio-1">
          <mxGeometry relative="1" as="geometry">
            <mxPoint x="468.5" y="674" as="targetPoint" />
            <mxPoint x="645" y="674" as="sourcePoint" />
          </mxGeometry>
        </mxCell>
        <mxCell id="rbU0Slw8I5bNIlCiZn7C-47" value="" style="line;strokeWidth=1;fillColor=none;align=left;verticalAlign=middle;spacingTop=-1;spacingLeft=3;spacingRight=3;rotatable=0;labelPosition=right;points=[];portConstraint=eastwest;dashed=1;" vertex="1" parent="PVDpojOrxvgwT7yR8eio-1">
          <mxGeometry x="10" y="690" width="890" height="8" as="geometry" />
        </mxCell>
        <mxCell id="rbU0Slw8I5bNIlCiZn7C-48" value="仅更新通过的零件，未通过的可重新编辑后进入审核" style="shape=note;whiteSpace=wrap;html=1;backgroundOutline=1;darkOpacity=0.05;fillColor=#f8cecc;size=8;strokeColor=#b85450;" vertex="1" parent="PVDpojOrxvgwT7yR8eio-1">
          <mxGeometry x="700" y="1171" width="150" height="29" as="geometry" />
        </mxCell>
        <mxCell id="rbU0Slw8I5bNIlCiZn7C-49" value="" style="html=1;points=[];perimeter=orthogonalPerimeter;fillColor=#FFFFFF;" vertex="1" parent="PVDpojOrxvgwT7yR8eio-1">
          <mxGeometry x="85" y="1250" width="10" height="310" as="geometry" />
        </mxCell>
        <mxCell id="rbU0Slw8I5bNIlCiZn7C-50" value="" style="html=1;points=[];perimeter=orthogonalPerimeter;fillColor=#FFFFFF;" vertex="1" parent="PVDpojOrxvgwT7yR8eio-1">
          <mxGeometry x="458.5" y="1384" width="10" height="136" as="geometry" />
        </mxCell>
        <mxCell id="rbU0Slw8I5bNIlCiZn7C-51" value="1.2调用库存聚合，&lt;br&gt;全部驳回库存调整申请单()" style="html=1;verticalAlign=bottom;endArrow=block;rounded=0;" edge="1" parent="PVDpojOrxvgwT7yR8eio-1">
          <mxGeometry width="80" relative="1" as="geometry">
            <mxPoint x="279.92857142857156" y="1384.0000000000002" as="sourcePoint" />
            <mxPoint x="458.4999999999998" y="1384.0000000000002" as="targetPoint" />
          </mxGeometry>
        </mxCell>
        <mxCell id="rbU0Slw8I5bNIlCiZn7C-52" value="" style="html=1;points=[];perimeter=orthogonalPerimeter;fillColor=#FFFFFF;" vertex="1" parent="PVDpojOrxvgwT7yR8eio-1">
          <mxGeometry x="644" y="1414" width="10" height="86" as="geometry" />
        </mxCell>
        <mxCell id="rbU0Slw8I5bNIlCiZn7C-53" value="" style="html=1;points=[];perimeter=orthogonalPerimeter;fillColor=#FFFFFF;" vertex="1" parent="PVDpojOrxvgwT7yR8eio-1">
          <mxGeometry x="654" y="1444" width="10" height="40" as="geometry" />
        </mxCell>
        <mxCell id="rbU0Slw8I5bNIlCiZn7C-54" value="1.2.1.1库存调整单.全部驳回" style="edgeStyle=orthogonalEdgeStyle;html=1;align=left;spacingLeft=2;endArrow=block;rounded=0;entryX=1;entryY=0;endSize=6;exitX=0.984;exitY=0.121;exitDx=0;exitDy=0;exitPerimeter=0;" edge="1" parent="PVDpojOrxvgwT7yR8eio-1" source="rbU0Slw8I5bNIlCiZn7C-52" target="rbU0Slw8I5bNIlCiZn7C-53">
          <mxGeometry relative="1" as="geometry">
            <mxPoint x="59" y="1304" as="sourcePoint" />
            <Array as="points">
              <mxPoint x="689" y="1424" />
              <mxPoint x="689" y="1444" />
            </Array>
          </mxGeometry>
        </mxCell>
        <mxCell id="rbU0Slw8I5bNIlCiZn7C-55" value="" style="html=1;points=[];perimeter=orthogonalPerimeter;fillColor=#FFFFFF;" vertex="1" parent="PVDpojOrxvgwT7yR8eio-1">
          <mxGeometry x="275" y="1254" width="10" height="286" as="geometry" />
        </mxCell>
        <mxCell id="rbU0Slw8I5bNIlCiZn7C-56" value="" style="html=1;points=[];perimeter=orthogonalPerimeter;fillColor=#FFFFFF;" vertex="1" parent="PVDpojOrxvgwT7yR8eio-1">
          <mxGeometry x="285" y="1304" width="10" height="40" as="geometry" />
        </mxCell>
        <mxCell id="rbU0Slw8I5bNIlCiZn7C-57" value="1.1参数合规性校验()" style="edgeStyle=orthogonalEdgeStyle;html=1;align=left;spacingLeft=2;endArrow=block;rounded=0;entryX=1;entryY=0;endSize=6;exitX=1.008;exitY=0.048;exitDx=0;exitDy=0;exitPerimeter=0;" edge="1" parent="PVDpojOrxvgwT7yR8eio-1" source="rbU0Slw8I5bNIlCiZn7C-55" target="rbU0Slw8I5bNIlCiZn7C-56">
          <mxGeometry relative="1" as="geometry">
            <mxPoint x="60" y="1164" as="sourcePoint" />
            <Array as="points">
              <mxPoint x="320" y="1284" />
              <mxPoint x="320" y="1304" />
            </Array>
          </mxGeometry>
        </mxCell>
        <mxCell id="rbU0Slw8I5bNIlCiZn7C-58" value="1.申请单全部驳回()" style="html=1;verticalAlign=bottom;endArrow=block;rounded=0;" edge="1" parent="PVDpojOrxvgwT7yR8eio-1">
          <mxGeometry width="80" relative="1" as="geometry">
            <mxPoint x="95" y="1254" as="sourcePoint" />
            <mxPoint x="279.5" y="1254" as="targetPoint" />
          </mxGeometry>
        </mxCell>
        <mxCell id="rbU0Slw8I5bNIlCiZn7C-59" value="" style="html=1;verticalAlign=bottom;endArrow=open;dashed=1;endSize=8;rounded=0;entryX=0.997;entryY=0.939;entryDx=0;entryDy=0;entryPerimeter=0;" edge="1" parent="PVDpojOrxvgwT7yR8eio-1">
          <mxGeometry relative="1" as="geometry">
            <mxPoint x="279.5" y="1539.82" as="sourcePoint" />
            <mxPoint x="94.97000000000025" y="1539.82" as="targetPoint" />
          </mxGeometry>
        </mxCell>
        <mxCell id="rbU0Slw8I5bNIlCiZn7C-60" value="1.2.1更新库存调整申请单" style="html=1;verticalAlign=bottom;endArrow=block;entryX=0;entryY=0;rounded=0;endSize=6;" edge="1" parent="PVDpojOrxvgwT7yR8eio-1" target="rbU0Slw8I5bNIlCiZn7C-52">
          <mxGeometry relative="1" as="geometry">
            <mxPoint x="469" y="1414.0000000000002" as="sourcePoint" />
          </mxGeometry>
        </mxCell>
        <mxCell id="rbU0Slw8I5bNIlCiZn7C-61" value="" style="html=1;verticalAlign=bottom;endArrow=open;dashed=1;endSize=8;exitX=0;exitY=0.95;rounded=0;" edge="1" parent="PVDpojOrxvgwT7yR8eio-1">
          <mxGeometry relative="1" as="geometry">
            <mxPoint x="469" y="1500" as="targetPoint" />
            <mxPoint x="644" y="1500" as="sourcePoint" />
          </mxGeometry>
        </mxCell>
        <mxCell id="rbU0Slw8I5bNIlCiZn7C-64" value="" style="html=1;verticalAlign=bottom;endArrow=open;dashed=1;endSize=8;rounded=0;exitX=0.042;exitY=1.008;exitDx=0;exitDy=0;exitPerimeter=0;" edge="1" parent="PVDpojOrxvgwT7yR8eio-1">
          <mxGeometry relative="1" as="geometry">
            <mxPoint x="458.9199999999996" y="1519.52" as="sourcePoint" />
            <mxPoint x="285" y="1519.52" as="targetPoint" />
          </mxGeometry>
        </mxCell>
        <mxCell id="rbU0Slw8I5bNIlCiZn7C-66" value="可重新编辑提交后进入审核" style="shape=note;whiteSpace=wrap;html=1;backgroundOutline=1;darkOpacity=0.05;fillColor=#f8cecc;size=8;strokeColor=#b85450;" vertex="1" parent="PVDpojOrxvgwT7yR8eio-1">
          <mxGeometry x="680" y="1471" width="150" height="19" as="geometry" />
        </mxCell>
        <mxCell id="rbU0Slw8I5bNIlCiZn7C-67" value="" style="line;strokeWidth=1;fillColor=none;align=left;verticalAlign=middle;spacingTop=-1;spacingLeft=3;spacingRight=3;rotatable=0;labelPosition=right;points=[];portConstraint=eastwest;dashed=1;" vertex="1" parent="PVDpojOrxvgwT7yR8eio-1">
          <mxGeometry x="10" y="1210" width="890" height="8" as="geometry" />
        </mxCell>
        <mxCell id="rbU0Slw8I5bNIlCiZn7C-71" value="【全部驳回】" style="text;html=1;align=center;verticalAlign=middle;resizable=0;points=[];autosize=1;strokeColor=none;fillColor=none;" vertex="1" parent="PVDpojOrxvgwT7yR8eio-1">
          <mxGeometry x="5" y="1220" width="90" height="20" as="geometry" />
        </mxCell>
        <mxCell id="rbU0Slw8I5bNIlCiZn7C-73" value="【部分通过】" style="text;html=1;align=center;verticalAlign=middle;resizable=0;points=[];autosize=1;strokeColor=none;fillColor=none;" vertex="1" parent="PVDpojOrxvgwT7yR8eio-1">
          <mxGeometry y="698" width="90" height="20" as="geometry" />
        </mxCell>
        <mxCell id="rbU0Slw8I5bNIlCiZn7C-74" value="【全部通过】" style="text;html=1;align=center;verticalAlign=middle;resizable=0;points=[];autosize=1;strokeColor=none;fillColor=none;" vertex="1" parent="PVDpojOrxvgwT7yR8eio-1">
          <mxGeometry y="200" width="90" height="20" as="geometry" />
        </mxCell>
        <mxCell id="rbU0Slw8I5bNIlCiZn7C-75" value="审核调整申请单-行为" style="shape=umlFrame;whiteSpace=wrap;html=1;width=120;height=15;" vertex="1" parent="PVDpojOrxvgwT7yR8eio-1">
          <mxGeometry y="100" width="910" height="1490" as="geometry" />
        </mxCell>
      </root>
    </mxGraphModel>
  </diagram>
  <diagram id="YZeP38mhC_Qxd2CpIOej" name="提交-行为">
    <mxGraphModel dx="1806" dy="955" grid="1" gridSize="10" guides="1" tooltips="1" connect="1" arrows="1" fold="1" page="1" pageScale="1" pageWidth="827" pageHeight="1169" math="0" shadow="0">
      <root>
        <mxCell id="er2120b5lWAsNdGzGjQY-0" />
        <mxCell id="er2120b5lWAsNdGzGjQY-1" parent="er2120b5lWAsNdGzGjQY-0" />
      </root>
    </mxGraphModel>
  </diagram>
  <diagram id="kdZGtH4mZ9aiySJ-_8Ck" name="事件图">
    <mxGraphModel dx="1720" dy="910" grid="1" gridSize="10" guides="1" tooltips="1" connect="1" arrows="0" fold="1" page="1" pageScale="1" pageWidth="827" pageHeight="1169" math="0" shadow="0">
      <root>
        <mxCell id="3W6WqJMpqGZ4H0qzBmMQ-0" />
        <mxCell id="3W6WqJMpqGZ4H0qzBmMQ-1" parent="3W6WqJMpqGZ4H0qzBmMQ-0" />
        <mxCell id="3W6WqJMpqGZ4H0qzBmMQ-2" value="" style="verticalLabelPosition=bottom;verticalAlign=top;html=1;shape=mxgraph.basic.rect;fillColor2=none;strokeWidth=1;size=20;indent=5;fillColor=#B9E0A5;" parent="3W6WqJMpqGZ4H0qzBmMQ-1" vertex="1">
          <mxGeometry x="550" y="220" width="950" height="280" as="geometry" />
        </mxCell>
        <mxCell id="3W6WqJMpqGZ4H0qzBmMQ-9" value="提交" style="html=1;verticalAlign=bottom;endArrow=block;rounded=0;entryX=0;entryY=0.5;entryDx=0;entryDy=0;endFill=1;endSize=6;" parent="3W6WqJMpqGZ4H0qzBmMQ-1" target="4SFHawzw00CQyHeP9pkp-0" edge="1">
          <mxGeometry x="0.0143" y="-10" width="80" relative="1" as="geometry">
            <mxPoint x="770" y="359.5" as="sourcePoint" />
            <mxPoint x="850" y="359.5" as="targetPoint" />
            <mxPoint as="offset" />
          </mxGeometry>
        </mxCell>
        <mxCell id="4SFHawzw00CQyHeP9pkp-0" value="&lt;span style=&quot;font-size: 11px ; background-color: rgb(255 , 255 , 255)&quot;&gt;待审批&lt;/span&gt;" style="html=1;fillColor=#FFFFFF;" parent="3W6WqJMpqGZ4H0qzBmMQ-1" vertex="1">
          <mxGeometry x="849" y="335" width="110" height="50" as="geometry" />
        </mxCell>
        <mxCell id="4SFHawzw00CQyHeP9pkp-6" value="&lt;span style=&quot;font-size: 11px ; background-color: rgb(255 , 255 , 255)&quot;&gt;全部驳回&lt;/span&gt;" style="html=1;fillColor=#FFFFFF;" parent="3W6WqJMpqGZ4H0qzBmMQ-1" vertex="1">
          <mxGeometry x="1090" y="370" width="110" height="50" as="geometry" />
        </mxCell>
        <mxCell id="8mjRhifexc327o-afTtR-9" style="edgeStyle=orthogonalEdgeStyle;curved=1;rounded=0;orthogonalLoop=1;jettySize=auto;html=1;exitX=1;exitY=0.5;exitDx=0;exitDy=0;entryX=1;entryY=0.5;entryDx=0;entryDy=0;dashed=1;endArrow=block;endFill=1;" parent="3W6WqJMpqGZ4H0qzBmMQ-1" source="4SFHawzw00CQyHeP9pkp-7" target="UFo19zcwUceA6o-k5zLB-0" edge="1">
          <mxGeometry relative="1" as="geometry">
            <Array as="points">
              <mxPoint x="1490" y="325" />
              <mxPoint x="1490" y="175" />
            </Array>
            <mxPoint x="1077.5" y="140" as="targetPoint" />
          </mxGeometry>
        </mxCell>
        <mxCell id="yJ91LplRnjEK8_nFq6lk-0" value="事件通知库存调整申请单.全部通过" style="edgeLabel;html=1;align=center;verticalAlign=middle;resizable=0;points=[];" vertex="1" connectable="0" parent="8mjRhifexc327o-afTtR-9">
          <mxGeometry x="-0.1577" y="23" relative="1" as="geometry">
            <mxPoint as="offset" />
          </mxGeometry>
        </mxCell>
        <mxCell id="4SFHawzw00CQyHeP9pkp-7" value="&lt;span style=&quot;font-size: 11px ; background-color: rgb(255 , 255 , 255)&quot;&gt;全部通过&lt;/span&gt;" style="html=1;fillColor=#FFFFFF;" parent="3W6WqJMpqGZ4H0qzBmMQ-1" vertex="1">
          <mxGeometry x="1090" y="300" width="110" height="50" as="geometry" />
        </mxCell>
        <mxCell id="8mjRhifexc327o-afTtR-8" style="edgeStyle=orthogonalEdgeStyle;curved=1;rounded=0;orthogonalLoop=1;jettySize=auto;html=1;exitX=1;exitY=0.5;exitDx=0;exitDy=0;entryX=1;entryY=0.5;entryDx=0;entryDy=0;dashed=1;endArrow=none;endFill=0;" parent="3W6WqJMpqGZ4H0qzBmMQ-1" source="4SFHawzw00CQyHeP9pkp-8" target="UFo19zcwUceA6o-k5zLB-0" edge="1">
          <mxGeometry relative="1" as="geometry">
            <mxPoint x="1077.5" y="140" as="targetPoint" />
            <Array as="points">
              <mxPoint x="1480" y="255" />
              <mxPoint x="1480" y="175" />
            </Array>
          </mxGeometry>
        </mxCell>
        <mxCell id="8mjRhifexc327o-afTtR-10" value="事件通知：库存调整申请单.部分通过" style="edgeLabel;html=1;align=center;verticalAlign=middle;resizable=0;points=[];" parent="8mjRhifexc327o-afTtR-8" vertex="1" connectable="0">
          <mxGeometry x="-0.5476" y="4" relative="1" as="geometry">
            <mxPoint x="40" as="offset" />
          </mxGeometry>
        </mxCell>
        <mxCell id="8mjRhifexc327o-afTtR-14" style="edgeStyle=orthogonalEdgeStyle;curved=1;rounded=0;orthogonalLoop=1;jettySize=auto;html=1;exitX=0;exitY=0.25;exitDx=0;exitDy=0;entryX=0.75;entryY=0;entryDx=0;entryDy=0;endArrow=block;endFill=1;" parent="3W6WqJMpqGZ4H0qzBmMQ-1" source="4SFHawzw00CQyHeP9pkp-8" target="l23pIWLlU_TnLgglJzo0-0" edge="1">
          <mxGeometry relative="1" as="geometry" />
        </mxCell>
        <mxCell id="8mjRhifexc327o-afTtR-15" value="重新编辑" style="edgeLabel;html=1;align=center;verticalAlign=middle;resizable=0;points=[];" parent="8mjRhifexc327o-afTtR-14" vertex="1" connectable="0">
          <mxGeometry x="0.162" y="19" relative="1" as="geometry">
            <mxPoint as="offset" />
          </mxGeometry>
        </mxCell>
        <mxCell id="4SFHawzw00CQyHeP9pkp-8" value="&lt;span style=&quot;font-size: 11px ; background-color: rgb(255 , 255 , 255)&quot;&gt;部分通过&lt;/span&gt;" style="html=1;fillColor=#FFFFFF;" parent="3W6WqJMpqGZ4H0qzBmMQ-1" vertex="1">
          <mxGeometry x="1090" y="230" width="110" height="50" as="geometry" />
        </mxCell>
        <mxCell id="4SFHawzw00CQyHeP9pkp-9" value="&lt;span style=&quot;font-size: 11px ; background-color: rgb(255 , 255 , 255)&quot;&gt;关闭&lt;/span&gt;" style="html=1;fillColor=#FFFFFF;" parent="3W6WqJMpqGZ4H0qzBmMQ-1" vertex="1">
          <mxGeometry x="1350" y="335" width="110" height="50" as="geometry" />
        </mxCell>
        <mxCell id="HCpisPJP8-vCLjsSUQ_C-29" style="edgeStyle=orthogonalEdgeStyle;curved=1;rounded=0;orthogonalLoop=1;jettySize=auto;html=1;exitX=0.5;exitY=1;exitDx=0;exitDy=0;entryX=0.5;entryY=1;entryDx=0;entryDy=0;dashed=1;endArrow=block;endFill=1;" parent="3W6WqJMpqGZ4H0qzBmMQ-1" source="l23pIWLlU_TnLgglJzo0-0" target="4SFHawzw00CQyHeP9pkp-9" edge="1">
          <mxGeometry relative="1" as="geometry">
            <Array as="points">
              <mxPoint x="715" y="480" />
              <mxPoint x="1405" y="480" />
            </Array>
          </mxGeometry>
        </mxCell>
        <mxCell id="8mjRhifexc327o-afTtR-3" value="超过30天未处理自动关闭" style="edgeLabel;html=1;align=center;verticalAlign=middle;resizable=0;points=[];" parent="HCpisPJP8-vCLjsSUQ_C-29" vertex="1" connectable="0">
          <mxGeometry x="0.4944" y="23" relative="1" as="geometry">
            <mxPoint as="offset" />
          </mxGeometry>
        </mxCell>
        <mxCell id="l23pIWLlU_TnLgglJzo0-0" value="&lt;font face=&quot;helvetica&quot;&gt;待提交&lt;/font&gt;" style="html=1;fillColor=#FFFFFF;" parent="3W6WqJMpqGZ4H0qzBmMQ-1" vertex="1">
          <mxGeometry x="660" y="335" width="110" height="50" as="geometry" />
        </mxCell>
        <mxCell id="l23pIWLlU_TnLgglJzo0-1" value="创建" style="html=1;verticalAlign=bottom;endArrow=block;rounded=0;entryX=0;entryY=0.5;entryDx=0;entryDy=0;endFill=1;endSize=8;" parent="3W6WqJMpqGZ4H0qzBmMQ-1" target="l23pIWLlU_TnLgglJzo0-0" edge="1">
          <mxGeometry x="-0.6364" y="-10" width="80" relative="1" as="geometry">
            <mxPoint x="550" y="360" as="sourcePoint" />
            <mxPoint x="629" y="360" as="targetPoint" />
            <mxPoint as="offset" />
          </mxGeometry>
        </mxCell>
        <mxCell id="l23pIWLlU_TnLgglJzo0-2" value="&lt;span style=&quot;font-size: 11px ; background-color: rgb(255 , 255 , 255)&quot;&gt;库存盘点&lt;/span&gt;" style="html=1;fillColor=#FFFFFF;" parent="3W6WqJMpqGZ4H0qzBmMQ-1" vertex="1">
          <mxGeometry x="590" y="150" width="110" height="50" as="geometry" />
        </mxCell>
        <mxCell id="UFo19zcwUceA6o-k5zLB-0" value="&lt;span style=&quot;font-size: 11px ; background-color: rgb(255 , 255 , 255)&quot;&gt;零件档案：库存&lt;/span&gt;" style="html=1;fillColor=#FFFFFF;" parent="3W6WqJMpqGZ4H0qzBmMQ-1" vertex="1">
          <mxGeometry x="1290" y="150" width="110" height="50" as="geometry" />
        </mxCell>
        <mxCell id="HCpisPJP8-vCLjsSUQ_C-25" style="edgeStyle=orthogonalEdgeStyle;curved=1;rounded=0;orthogonalLoop=1;jettySize=auto;html=1;exitX=0;exitY=0.5;exitDx=0;exitDy=0;entryX=0;entryY=0.5;entryDx=0;entryDy=0;endArrow=none;endFill=0;dashed=1;" parent="3W6WqJMpqGZ4H0qzBmMQ-1" source="l23pIWLlU_TnLgglJzo0-2" target="l23pIWLlU_TnLgglJzo0-0" edge="1">
          <mxGeometry relative="1" as="geometry">
            <Array as="points">
              <mxPoint x="490" y="175" />
              <mxPoint x="490" y="360" />
            </Array>
            <mxPoint x="1022.5" y="140" as="sourcePoint" />
          </mxGeometry>
        </mxCell>
        <mxCell id="HCpisPJP8-vCLjsSUQ_C-26" value="事件通知：库存盘点清单" style="edgeLabel;html=1;align=center;verticalAlign=middle;resizable=0;points=[];" parent="HCpisPJP8-vCLjsSUQ_C-25" vertex="1" connectable="0">
          <mxGeometry x="-0.0197" y="9" relative="1" as="geometry">
            <mxPoint x="11" y="-9" as="offset" />
          </mxGeometry>
        </mxCell>
        <mxCell id="HCpisPJP8-vCLjsSUQ_C-11" value="全部驳回" style="html=1;verticalAlign=bottom;endArrow=block;rounded=0;entryX=0;entryY=0.5;entryDx=0;entryDy=0;edgeStyle=orthogonalEdgeStyle;curved=1;exitX=1;exitY=0.5;exitDx=0;exitDy=0;" parent="3W6WqJMpqGZ4H0qzBmMQ-1" source="4SFHawzw00CQyHeP9pkp-0" target="4SFHawzw00CQyHeP9pkp-6" edge="1">
          <mxGeometry x="0.2727" y="-5" width="80" relative="1" as="geometry">
            <mxPoint x="960" y="360" as="sourcePoint" />
            <mxPoint x="1100" y="475" as="targetPoint" />
            <Array as="points">
              <mxPoint x="959" y="395" />
            </Array>
            <mxPoint as="offset" />
          </mxGeometry>
        </mxCell>
        <mxCell id="HCpisPJP8-vCLjsSUQ_C-12" value="全部通过" style="html=1;verticalAlign=bottom;endArrow=block;rounded=0;entryX=0;entryY=0.5;entryDx=0;entryDy=0;edgeStyle=orthogonalEdgeStyle;curved=1;" parent="3W6WqJMpqGZ4H0qzBmMQ-1" target="4SFHawzw00CQyHeP9pkp-7" edge="1">
          <mxGeometry x="0.2769" y="-5" width="80" relative="1" as="geometry">
            <mxPoint x="959" y="360" as="sourcePoint" />
            <mxPoint x="1100" y="405" as="targetPoint" />
            <Array as="points">
              <mxPoint x="959" y="325" />
            </Array>
            <mxPoint as="offset" />
          </mxGeometry>
        </mxCell>
        <mxCell id="HCpisPJP8-vCLjsSUQ_C-13" value="部分通过" style="html=1;verticalAlign=bottom;endArrow=block;rounded=0;edgeStyle=orthogonalEdgeStyle;curved=1;entryX=0;entryY=0.5;entryDx=0;entryDy=0;" parent="3W6WqJMpqGZ4H0qzBmMQ-1" target="4SFHawzw00CQyHeP9pkp-8" edge="1">
          <mxGeometry x="0.4066" y="-15" width="80" relative="1" as="geometry">
            <mxPoint x="959" y="360" as="sourcePoint" />
            <mxPoint x="1089" y="255" as="targetPoint" />
            <Array as="points">
              <mxPoint x="959" y="255" />
            </Array>
            <mxPoint as="offset" />
          </mxGeometry>
        </mxCell>
        <mxCell id="8mjRhifexc327o-afTtR-0" value="" style="html=1;verticalAlign=bottom;endArrow=none;rounded=0;dashed=1;curved=1;entryX=0;entryY=0.5;entryDx=0;entryDy=0;exitX=1;exitY=0.5;exitDx=0;exitDy=0;endFill=0;" parent="3W6WqJMpqGZ4H0qzBmMQ-1" source="4SFHawzw00CQyHeP9pkp-7" target="4SFHawzw00CQyHeP9pkp-9" edge="1">
          <mxGeometry width="80" relative="1" as="geometry">
            <mxPoint x="1000" y="360" as="sourcePoint" />
            <mxPoint x="1080" y="360" as="targetPoint" />
          </mxGeometry>
        </mxCell>
        <mxCell id="8mjRhifexc327o-afTtR-5" value="超过30天未处理自动关闭" style="edgeLabel;html=1;align=center;verticalAlign=middle;resizable=0;points=[];" parent="8mjRhifexc327o-afTtR-0" vertex="1" connectable="0">
          <mxGeometry x="-0.1449" y="1" relative="1" as="geometry">
            <mxPoint x="16" y="1" as="offset" />
          </mxGeometry>
        </mxCell>
        <mxCell id="8mjRhifexc327o-afTtR-1" value="" style="html=1;verticalAlign=bottom;endArrow=none;rounded=0;dashed=1;curved=1;entryX=0;entryY=0.5;entryDx=0;entryDy=0;exitX=1;exitY=0.5;exitDx=0;exitDy=0;endFill=0;" parent="3W6WqJMpqGZ4H0qzBmMQ-1" source="4SFHawzw00CQyHeP9pkp-6" target="4SFHawzw00CQyHeP9pkp-9" edge="1">
          <mxGeometry width="80" relative="1" as="geometry">
            <mxPoint x="1210" y="335" as="sourcePoint" />
            <mxPoint x="1360" y="370" as="targetPoint" />
          </mxGeometry>
        </mxCell>
        <mxCell id="8mjRhifexc327o-afTtR-4" value="超过30天未处理自动关闭" style="edgeLabel;html=1;align=center;verticalAlign=middle;resizable=0;points=[];" parent="8mjRhifexc327o-afTtR-1" vertex="1" connectable="0">
          <mxGeometry x="-0.342" y="-1" relative="1" as="geometry">
            <mxPoint x="30" y="-4" as="offset" />
          </mxGeometry>
        </mxCell>
        <mxCell id="8mjRhifexc327o-afTtR-2" value="" style="html=1;verticalAlign=bottom;endArrow=block;rounded=0;dashed=1;curved=1;entryX=0;entryY=0.5;entryDx=0;entryDy=0;" parent="3W6WqJMpqGZ4H0qzBmMQ-1" target="4SFHawzw00CQyHeP9pkp-9" edge="1">
          <mxGeometry width="80" relative="1" as="geometry">
            <mxPoint x="1340" y="360" as="sourcePoint" />
            <mxPoint x="1360" y="370" as="targetPoint" />
          </mxGeometry>
        </mxCell>
        <mxCell id="8mjRhifexc327o-afTtR-16" value="库存调整申请单状态流转" style="text;html=1;align=center;verticalAlign=middle;resizable=0;points=[];autosize=1;strokeColor=none;fillColor=none;" parent="3W6WqJMpqGZ4H0qzBmMQ-1" vertex="1">
          <mxGeometry x="550" y="223" width="150" height="20" as="geometry" />
        </mxCell>
      </root>
    </mxGraphModel>
  </diagram>
  <diagram id="a7yvxRzjYRqS2Shdf80w" name="聚合根">
    <mxGraphModel dx="860" dy="455" grid="1" gridSize="10" guides="1" tooltips="1" connect="1" arrows="1" fold="1" page="1" pageScale="1" pageWidth="827" pageHeight="1169" math="0" shadow="0">
      <root>
        <mxCell id="79y1Xv8FWdQJc0A-ZyRu-0" />
        <mxCell id="79y1Xv8FWdQJc0A-ZyRu-1" parent="79y1Xv8FWdQJc0A-ZyRu-0" />
        <mxCell id="SYC36nNylXyGgabohHPE-13" value="库存调整申请单" style="shape=table;startSize=30;container=1;collapsible=1;childLayout=tableLayout;fixedRows=1;rowLines=0;fontStyle=1;align=center;resizeLast=1;fillColor=#CFC86B;" parent="79y1Xv8FWdQJc0A-ZyRu-1" vertex="1">
          <mxGeometry x="310" y="230" width="180" height="240" as="geometry" />
        </mxCell>
        <mxCell id="SYC36nNylXyGgabohHPE-14" value="" style="shape=tableRow;horizontal=0;startSize=0;swimlaneHead=0;swimlaneBody=0;fillColor=#CFC86B;collapsible=0;dropTarget=0;points=[[0,0.5],[1,0.5]];portConstraint=eastwest;top=0;left=0;right=0;bottom=1;" parent="SYC36nNylXyGgabohHPE-13" vertex="1">
          <mxGeometry y="30" width="180" height="30" as="geometry" />
        </mxCell>
        <mxCell id="SYC36nNylXyGgabohHPE-15" value="PK" style="shape=partialRectangle;connectable=0;fillColor=#CFC86B;top=0;left=0;bottom=0;right=0;fontStyle=1;overflow=hidden;" parent="SYC36nNylXyGgabohHPE-14" vertex="1">
          <mxGeometry width="30" height="30" as="geometry">
            <mxRectangle width="30" height="30" as="alternateBounds" />
          </mxGeometry>
        </mxCell>
        <mxCell id="SYC36nNylXyGgabohHPE-16" value="id" style="shape=partialRectangle;connectable=0;fillColor=#CFC86B;top=0;left=0;bottom=0;right=0;align=left;spacingLeft=6;fontStyle=1;overflow=hidden;" parent="SYC36nNylXyGgabohHPE-14" vertex="1">
          <mxGeometry x="30" width="150" height="30" as="geometry">
            <mxRectangle width="150" height="30" as="alternateBounds" />
          </mxGeometry>
        </mxCell>
        <mxCell id="SYC36nNylXyGgabohHPE-17" value="" style="shape=tableRow;horizontal=0;startSize=0;swimlaneHead=0;swimlaneBody=0;fillColor=#CFC86B;collapsible=0;dropTarget=0;points=[[0,0.5],[1,0.5]];portConstraint=eastwest;top=0;left=0;right=0;bottom=0;" parent="SYC36nNylXyGgabohHPE-13" vertex="1">
          <mxGeometry y="60" width="180" height="30" as="geometry" />
        </mxCell>
        <mxCell id="SYC36nNylXyGgabohHPE-18" value="" style="shape=partialRectangle;connectable=0;fillColor=#CFC86B;top=0;left=0;bottom=0;right=0;editable=1;overflow=hidden;" parent="SYC36nNylXyGgabohHPE-17" vertex="1">
          <mxGeometry width="30" height="30" as="geometry">
            <mxRectangle width="30" height="30" as="alternateBounds" />
          </mxGeometry>
        </mxCell>
        <mxCell id="SYC36nNylXyGgabohHPE-19" value="盘点单号" style="shape=partialRectangle;connectable=0;fillColor=#CFC86B;top=0;left=0;bottom=0;right=0;align=left;spacingLeft=6;overflow=hidden;" parent="SYC36nNylXyGgabohHPE-17" vertex="1">
          <mxGeometry x="30" width="150" height="30" as="geometry">
            <mxRectangle width="150" height="30" as="alternateBounds" />
          </mxGeometry>
        </mxCell>
        <mxCell id="s8ctDX3eeSpTGmI3dn0D-56" style="shape=tableRow;horizontal=0;startSize=0;swimlaneHead=0;swimlaneBody=0;fillColor=#CFC86B;collapsible=0;dropTarget=0;points=[[0,0.5],[1,0.5]];portConstraint=eastwest;top=0;left=0;right=0;bottom=0;" parent="SYC36nNylXyGgabohHPE-13" vertex="1">
          <mxGeometry y="90" width="180" height="30" as="geometry" />
        </mxCell>
        <mxCell id="s8ctDX3eeSpTGmI3dn0D-57" value="" style="shape=partialRectangle;connectable=0;fillColor=#CFC86B;top=0;left=0;bottom=0;right=0;editable=1;overflow=hidden;" parent="s8ctDX3eeSpTGmI3dn0D-56" vertex="1">
          <mxGeometry width="30" height="30" as="geometry">
            <mxRectangle width="30" height="30" as="alternateBounds" />
          </mxGeometry>
        </mxCell>
        <mxCell id="s8ctDX3eeSpTGmI3dn0D-58" value="申请提交日期" style="shape=partialRectangle;connectable=0;fillColor=#CFC86B;top=0;left=0;bottom=0;right=0;align=left;spacingLeft=6;overflow=hidden;" parent="s8ctDX3eeSpTGmI3dn0D-56" vertex="1">
          <mxGeometry x="30" width="150" height="30" as="geometry">
            <mxRectangle width="150" height="30" as="alternateBounds" />
          </mxGeometry>
        </mxCell>
        <mxCell id="SYC36nNylXyGgabohHPE-38" style="shape=tableRow;horizontal=0;startSize=0;swimlaneHead=0;swimlaneBody=0;fillColor=#CFC86B;collapsible=0;dropTarget=0;points=[[0,0.5],[1,0.5]];portConstraint=eastwest;top=0;left=0;right=0;bottom=0;" parent="SYC36nNylXyGgabohHPE-13" vertex="1">
          <mxGeometry y="120" width="180" height="30" as="geometry" />
        </mxCell>
        <mxCell id="SYC36nNylXyGgabohHPE-39" style="shape=partialRectangle;connectable=0;fillColor=#CFC86B;top=0;left=0;bottom=0;right=0;editable=1;overflow=hidden;" parent="SYC36nNylXyGgabohHPE-38" vertex="1">
          <mxGeometry width="30" height="30" as="geometry">
            <mxRectangle width="30" height="30" as="alternateBounds" />
          </mxGeometry>
        </mxCell>
        <mxCell id="SYC36nNylXyGgabohHPE-40" value="单据状态" style="shape=partialRectangle;connectable=0;fillColor=#CFC86B;top=0;left=0;bottom=0;right=0;align=left;spacingLeft=6;overflow=hidden;" parent="SYC36nNylXyGgabohHPE-38" vertex="1">
          <mxGeometry x="30" width="150" height="30" as="geometry">
            <mxRectangle width="150" height="30" as="alternateBounds" />
          </mxGeometry>
        </mxCell>
        <mxCell id="SYC36nNylXyGgabohHPE-23" style="shape=tableRow;horizontal=0;startSize=0;swimlaneHead=0;swimlaneBody=0;fillColor=#CFC86B;collapsible=0;dropTarget=0;points=[[0,0.5],[1,0.5]];portConstraint=eastwest;top=0;left=0;right=0;bottom=0;" parent="SYC36nNylXyGgabohHPE-13" vertex="1">
          <mxGeometry y="150" width="180" height="30" as="geometry" />
        </mxCell>
        <mxCell id="SYC36nNylXyGgabohHPE-24" style="shape=partialRectangle;connectable=0;fillColor=#CFC86B;top=0;left=0;bottom=0;right=0;editable=1;overflow=hidden;" parent="SYC36nNylXyGgabohHPE-23" vertex="1">
          <mxGeometry width="30" height="30" as="geometry">
            <mxRectangle width="30" height="30" as="alternateBounds" />
          </mxGeometry>
        </mxCell>
        <mxCell id="SYC36nNylXyGgabohHPE-25" value="审批日期" style="shape=partialRectangle;connectable=0;fillColor=#CFC86B;top=0;left=0;bottom=0;right=0;align=left;spacingLeft=6;overflow=hidden;" parent="SYC36nNylXyGgabohHPE-23" vertex="1">
          <mxGeometry x="30" width="150" height="30" as="geometry">
            <mxRectangle width="150" height="30" as="alternateBounds" />
          </mxGeometry>
        </mxCell>
        <mxCell id="SYC36nNylXyGgabohHPE-20" style="shape=tableRow;horizontal=0;startSize=0;swimlaneHead=0;swimlaneBody=0;fillColor=#CFC86B;collapsible=0;dropTarget=0;points=[[0,0.5],[1,0.5]];portConstraint=eastwest;top=0;left=0;right=0;bottom=0;" parent="SYC36nNylXyGgabohHPE-13" vertex="1">
          <mxGeometry y="180" width="180" height="30" as="geometry" />
        </mxCell>
        <mxCell id="SYC36nNylXyGgabohHPE-21" style="shape=partialRectangle;connectable=0;fillColor=#CFC86B;top=0;left=0;bottom=0;right=0;editable=1;overflow=hidden;" parent="SYC36nNylXyGgabohHPE-20" vertex="1">
          <mxGeometry width="30" height="30" as="geometry">
            <mxRectangle width="30" height="30" as="alternateBounds" />
          </mxGeometry>
        </mxCell>
        <mxCell id="SYC36nNylXyGgabohHPE-22" value="经销商店" style="shape=partialRectangle;connectable=0;fillColor=#CFC86B;top=0;left=0;bottom=0;right=0;align=left;spacingLeft=6;overflow=hidden;" parent="SYC36nNylXyGgabohHPE-20" vertex="1">
          <mxGeometry x="30" width="150" height="30" as="geometry">
            <mxRectangle width="150" height="30" as="alternateBounds" />
          </mxGeometry>
        </mxCell>
        <mxCell id="7JIEpGhaOQOvTL8CsC33-23" style="shape=tableRow;horizontal=0;startSize=0;swimlaneHead=0;swimlaneBody=0;fillColor=#CFC86B;collapsible=0;dropTarget=0;points=[[0,0.5],[1,0.5]];portConstraint=eastwest;top=0;left=0;right=0;bottom=0;" parent="SYC36nNylXyGgabohHPE-13" vertex="1">
          <mxGeometry y="210" width="180" height="30" as="geometry" />
        </mxCell>
        <mxCell id="7JIEpGhaOQOvTL8CsC33-24" style="shape=partialRectangle;connectable=0;fillColor=#CFC86B;top=0;left=0;bottom=0;right=0;editable=1;overflow=hidden;" parent="7JIEpGhaOQOvTL8CsC33-23" vertex="1">
          <mxGeometry width="30" height="30" as="geometry">
            <mxRectangle width="30" height="30" as="alternateBounds" />
          </mxGeometry>
        </mxCell>
        <mxCell id="7JIEpGhaOQOvTL8CsC33-25" value="文件路径" style="shape=partialRectangle;connectable=0;fillColor=#CFC86B;top=0;left=0;bottom=0;right=0;align=left;spacingLeft=6;overflow=hidden;" parent="7JIEpGhaOQOvTL8CsC33-23" vertex="1">
          <mxGeometry x="30" width="150" height="30" as="geometry">
            <mxRectangle width="150" height="30" as="alternateBounds" />
          </mxGeometry>
        </mxCell>
        <mxCell id="s8ctDX3eeSpTGmI3dn0D-0" value="零件档案" style="shape=table;startSize=30;container=1;collapsible=1;childLayout=tableLayout;fixedRows=1;rowLines=0;fontStyle=1;align=center;resizeLast=1;fillColor=#FFCC99;strokeColor=#36393d;" parent="79y1Xv8FWdQJc0A-ZyRu-1" vertex="1">
          <mxGeometry x="550" y="385" width="180" height="120" as="geometry" />
        </mxCell>
        <mxCell id="s8ctDX3eeSpTGmI3dn0D-1" value="" style="shape=tableRow;horizontal=0;startSize=0;swimlaneHead=0;swimlaneBody=0;fillColor=#ffcc99;collapsible=0;dropTarget=0;points=[[0,0.5],[1,0.5]];portConstraint=eastwest;top=0;left=0;right=0;bottom=1;strokeColor=#36393d;" parent="s8ctDX3eeSpTGmI3dn0D-0" vertex="1">
          <mxGeometry y="30" width="180" height="30" as="geometry" />
        </mxCell>
        <mxCell id="s8ctDX3eeSpTGmI3dn0D-2" value="PK" style="shape=partialRectangle;connectable=0;fillColor=#ffcc99;top=0;left=0;bottom=0;right=0;fontStyle=1;overflow=hidden;strokeColor=#36393d;" parent="s8ctDX3eeSpTGmI3dn0D-1" vertex="1">
          <mxGeometry width="30" height="30" as="geometry">
            <mxRectangle width="30" height="30" as="alternateBounds" />
          </mxGeometry>
        </mxCell>
        <mxCell id="s8ctDX3eeSpTGmI3dn0D-3" value="id" style="shape=partialRectangle;connectable=0;fillColor=#ffcc99;top=0;left=0;bottom=0;right=0;align=left;spacingLeft=6;fontStyle=1;overflow=hidden;strokeColor=#36393d;" parent="s8ctDX3eeSpTGmI3dn0D-1" vertex="1">
          <mxGeometry x="30" width="150" height="30" as="geometry">
            <mxRectangle width="150" height="30" as="alternateBounds" />
          </mxGeometry>
        </mxCell>
        <mxCell id="n-YMJv78onCZi9NMXKpz-0" style="shape=tableRow;horizontal=0;startSize=0;swimlaneHead=0;swimlaneBody=0;fillColor=#ffcc99;collapsible=0;dropTarget=0;points=[[0,0.5],[1,0.5]];portConstraint=eastwest;top=0;left=0;right=0;bottom=1;strokeColor=#36393d;" parent="s8ctDX3eeSpTGmI3dn0D-0" vertex="1">
          <mxGeometry y="60" width="180" height="30" as="geometry" />
        </mxCell>
        <mxCell id="n-YMJv78onCZi9NMXKpz-1" style="shape=partialRectangle;connectable=0;fillColor=#ffcc99;top=0;left=0;bottom=0;right=0;fontStyle=1;overflow=hidden;strokeColor=#36393d;" parent="n-YMJv78onCZi9NMXKpz-0" vertex="1">
          <mxGeometry width="30" height="30" as="geometry">
            <mxRectangle width="30" height="30" as="alternateBounds" />
          </mxGeometry>
        </mxCell>
        <mxCell id="n-YMJv78onCZi9NMXKpz-2" value="零件编号" style="shape=partialRectangle;connectable=0;fillColor=#ffcc99;top=0;left=0;bottom=0;right=0;align=left;spacingLeft=6;fontStyle=0;overflow=hidden;strokeColor=#36393d;" parent="n-YMJv78onCZi9NMXKpz-0" vertex="1">
          <mxGeometry x="30" width="150" height="30" as="geometry">
            <mxRectangle width="150" height="30" as="alternateBounds" />
          </mxGeometry>
        </mxCell>
        <mxCell id="s8ctDX3eeSpTGmI3dn0D-4" value="" style="shape=tableRow;horizontal=0;startSize=0;swimlaneHead=0;swimlaneBody=0;fillColor=#ffcc99;collapsible=0;dropTarget=0;points=[[0,0.5],[1,0.5]];portConstraint=eastwest;top=0;left=0;right=0;bottom=0;strokeColor=#36393d;" parent="s8ctDX3eeSpTGmI3dn0D-0" vertex="1">
          <mxGeometry y="90" width="180" height="30" as="geometry" />
        </mxCell>
        <mxCell id="s8ctDX3eeSpTGmI3dn0D-5" value="" style="shape=partialRectangle;connectable=0;fillColor=#ffcc99;top=0;left=0;bottom=0;right=0;editable=1;overflow=hidden;strokeColor=#36393d;" parent="s8ctDX3eeSpTGmI3dn0D-4" vertex="1">
          <mxGeometry width="30" height="30" as="geometry">
            <mxRectangle width="30" height="30" as="alternateBounds" />
          </mxGeometry>
        </mxCell>
        <mxCell id="s8ctDX3eeSpTGmI3dn0D-6" value="库存数" style="shape=partialRectangle;connectable=0;fillColor=#ffcc99;top=0;left=0;bottom=0;right=0;align=left;spacingLeft=6;overflow=hidden;strokeColor=#36393d;" parent="s8ctDX3eeSpTGmI3dn0D-4" vertex="1">
          <mxGeometry x="30" width="150" height="30" as="geometry">
            <mxRectangle width="150" height="30" as="alternateBounds" />
          </mxGeometry>
        </mxCell>
        <mxCell id="p6dmz7aw35iFWnYbpZse-0" value="【共通】经销商" style="shape=table;startSize=30;container=1;collapsible=1;childLayout=tableLayout;fixedRows=1;rowLines=0;fontStyle=1;align=center;resizeLast=1;fillColor=#FFFF99;" parent="79y1Xv8FWdQJc0A-ZyRu-1" vertex="1">
          <mxGeometry x="60" y="430" width="180" height="60" as="geometry" />
        </mxCell>
        <mxCell id="p6dmz7aw35iFWnYbpZse-1" value="" style="shape=tableRow;horizontal=0;startSize=0;swimlaneHead=0;swimlaneBody=0;fillColor=#FFFF99;collapsible=0;dropTarget=0;points=[[0,0.5],[1,0.5]];portConstraint=eastwest;top=0;left=0;right=0;bottom=1;" parent="p6dmz7aw35iFWnYbpZse-0" vertex="1">
          <mxGeometry y="30" width="180" height="30" as="geometry" />
        </mxCell>
        <mxCell id="p6dmz7aw35iFWnYbpZse-2" value="PK" style="shape=partialRectangle;connectable=0;fillColor=#FFFF99;top=0;left=0;bottom=0;right=0;fontStyle=1;overflow=hidden;" parent="p6dmz7aw35iFWnYbpZse-1" vertex="1">
          <mxGeometry width="30" height="30" as="geometry">
            <mxRectangle width="30" height="30" as="alternateBounds" />
          </mxGeometry>
        </mxCell>
        <mxCell id="p6dmz7aw35iFWnYbpZse-3" value="id" style="shape=partialRectangle;connectable=0;fillColor=#FFFF99;top=0;left=0;bottom=0;right=0;align=left;spacingLeft=6;fontStyle=1;overflow=hidden;" parent="p6dmz7aw35iFWnYbpZse-1" vertex="1">
          <mxGeometry x="30" width="150" height="30" as="geometry">
            <mxRectangle width="150" height="30" as="alternateBounds" />
          </mxGeometry>
        </mxCell>
        <mxCell id="7JIEpGhaOQOvTL8CsC33-26" value="盘点清单" style="shape=table;startSize=30;container=1;collapsible=1;childLayout=tableLayout;fixedRows=1;rowLines=0;fontStyle=1;align=center;resizeLast=1;fillColor=#FFCC99;strokeColor=#36393d;" parent="79y1Xv8FWdQJc0A-ZyRu-1" vertex="1">
          <mxGeometry x="60" y="320" width="180" height="90" as="geometry" />
        </mxCell>
        <mxCell id="7JIEpGhaOQOvTL8CsC33-27" value="" style="shape=tableRow;horizontal=0;startSize=0;swimlaneHead=0;swimlaneBody=0;fillColor=#FFCC99;collapsible=0;dropTarget=0;points=[[0,0.5],[1,0.5]];portConstraint=eastwest;top=0;left=0;right=0;bottom=1;strokeColor=#36393d;" parent="7JIEpGhaOQOvTL8CsC33-26" vertex="1">
          <mxGeometry y="30" width="180" height="30" as="geometry" />
        </mxCell>
        <mxCell id="7JIEpGhaOQOvTL8CsC33-28" value="PK" style="shape=partialRectangle;connectable=0;fillColor=#FFCC99;top=0;left=0;bottom=0;right=0;fontStyle=1;overflow=hidden;strokeColor=#36393d;" parent="7JIEpGhaOQOvTL8CsC33-27" vertex="1">
          <mxGeometry width="30" height="30" as="geometry">
            <mxRectangle width="30" height="30" as="alternateBounds" />
          </mxGeometry>
        </mxCell>
        <mxCell id="7JIEpGhaOQOvTL8CsC33-29" value="id" style="shape=partialRectangle;connectable=0;fillColor=#FFCC99;top=0;left=0;bottom=0;right=0;align=left;spacingLeft=6;fontStyle=1;overflow=hidden;strokeColor=#36393d;" parent="7JIEpGhaOQOvTL8CsC33-27" vertex="1">
          <mxGeometry x="30" width="150" height="30" as="geometry">
            <mxRectangle width="150" height="30" as="alternateBounds" />
          </mxGeometry>
        </mxCell>
        <mxCell id="7keK0eMK7UHyj0viFh60-0" style="shape=tableRow;horizontal=0;startSize=0;swimlaneHead=0;swimlaneBody=0;fillColor=#FFCC99;collapsible=0;dropTarget=0;points=[[0,0.5],[1,0.5]];portConstraint=eastwest;top=0;left=0;right=0;bottom=1;strokeColor=#36393d;" vertex="1" parent="7JIEpGhaOQOvTL8CsC33-26">
          <mxGeometry y="60" width="180" height="30" as="geometry" />
        </mxCell>
        <mxCell id="7keK0eMK7UHyj0viFh60-1" style="shape=partialRectangle;connectable=0;fillColor=#FFCC99;top=0;left=0;bottom=0;right=0;fontStyle=1;overflow=hidden;strokeColor=#36393d;" vertex="1" parent="7keK0eMK7UHyj0viFh60-0">
          <mxGeometry width="30" height="30" as="geometry">
            <mxRectangle width="30" height="30" as="alternateBounds" />
          </mxGeometry>
        </mxCell>
        <mxCell id="7keK0eMK7UHyj0viFh60-2" value="盘点单号" style="shape=partialRectangle;connectable=0;fillColor=#FFCC99;top=0;left=0;bottom=0;right=0;align=left;spacingLeft=6;fontStyle=0;overflow=hidden;strokeColor=#36393d;" vertex="1" parent="7keK0eMK7UHyj0viFh60-0">
          <mxGeometry x="30" width="150" height="30" as="geometry">
            <mxRectangle width="150" height="30" as="alternateBounds" />
          </mxGeometry>
        </mxCell>
        <mxCell id="n-YMJv78onCZi9NMXKpz-3" value="" style="endArrow=none;html=1;endSize=12;startArrow=diamondThin;startSize=14;startFill=0;edgeStyle=orthogonalEdgeStyle;align=left;verticalAlign=bottom;rounded=0;exitX=1;exitY=0.5;exitDx=0;exitDy=0;entryX=0;entryY=0.5;entryDx=0;entryDy=0;endFill=0;" parent="79y1Xv8FWdQJc0A-ZyRu-1" source="s8ctDX3eeSpTGmI3dn0D-56" target="n-YMJv78onCZi9NMXKpz-0" edge="1">
          <mxGeometry x="-1" y="3" relative="1" as="geometry">
            <mxPoint x="340" y="400" as="sourcePoint" />
            <mxPoint x="500" y="400" as="targetPoint" />
          </mxGeometry>
        </mxCell>
        <mxCell id="zqPHNDR38Qm4f5C1bVsh-0" value="1" style="text;html=1;align=center;verticalAlign=middle;resizable=0;points=[];autosize=1;strokeColor=none;fillColor=none;" parent="79y1Xv8FWdQJc0A-ZyRu-1" vertex="1">
          <mxGeometry x="280" y="280" width="20" height="20" as="geometry" />
        </mxCell>
        <mxCell id="zqPHNDR38Qm4f5C1bVsh-1" value="1" style="text;html=1;align=center;verticalAlign=middle;resizable=0;points=[];autosize=1;strokeColor=none;fillColor=none;" parent="79y1Xv8FWdQJc0A-ZyRu-1" vertex="1">
          <mxGeometry x="240" y="350" width="20" height="20" as="geometry" />
        </mxCell>
        <mxCell id="zqPHNDR38Qm4f5C1bVsh-2" value="1" style="text;html=1;align=center;verticalAlign=middle;resizable=0;points=[];autosize=1;strokeColor=none;fillColor=none;" parent="79y1Xv8FWdQJc0A-ZyRu-1" vertex="1">
          <mxGeometry x="490" y="310" width="20" height="20" as="geometry" />
        </mxCell>
        <mxCell id="zqPHNDR38Qm4f5C1bVsh-3" value="n" style="text;html=1;align=center;verticalAlign=middle;resizable=0;points=[];autosize=1;strokeColor=none;fillColor=none;" parent="79y1Xv8FWdQJc0A-ZyRu-1" vertex="1">
          <mxGeometry x="530" y="430" width="20" height="20" as="geometry" />
        </mxCell>
        <mxCell id="n-YMJv78onCZi9NMXKpz-4" value="" style="endArrow=none;html=1;endSize=12;startArrow=diamondThin;startSize=14;startFill=0;edgeStyle=orthogonalEdgeStyle;align=left;verticalAlign=bottom;rounded=0;endFill=0;exitX=0;exitY=0.5;exitDx=0;exitDy=0;" parent="79y1Xv8FWdQJc0A-ZyRu-1" source="SYC36nNylXyGgabohHPE-17" target="7JIEpGhaOQOvTL8CsC33-27" edge="1">
          <mxGeometry x="-1" y="3" relative="1" as="geometry">
            <mxPoint x="500.0000000000002" y="344.9999999999999" as="sourcePoint" />
            <mxPoint x="559.9999999999998" y="470" as="targetPoint" />
          </mxGeometry>
        </mxCell>
      </root>
    </mxGraphModel>
  </diagram>
</mxfile>
